<?xml version="1.0" encoding="utf-8" standalone="no"?>
<!DOCTYPE svg PUBLIC "-//W3C//DTD SVG 1.1//EN"
  "http://www.w3.org/Graphics/SVG/1.1/DTD/svg11.dtd">
<svg xmlns:xlink="http://www.w3.org/1999/xlink" width="936pt" height="319.73443pt" viewBox="0 0 936 319.73443" xmlns="http://www.w3.org/2000/svg" version="1.1">
 <metadata>
  <rdf:RDF xmlns:dc="http://purl.org/dc/elements/1.1/" xmlns:cc="http://creativecommons.org/ns#" xmlns:rdf="http://www.w3.org/1999/02/22-rdf-syntax-ns#">
   <cc:Work>
    <dc:type rdf:resource="http://purl.org/dc/dcmitype/StillImage"/>
    <dc:date>2026-03-12T07:57:57.961968</dc:date>
    <dc:format>image/svg+xml</dc:format>
    <dc:creator>
     <cc:Agent>
      <dc:title>Matplotlib v3.10.8, https://matplotlib.org/</dc:title>
     </cc:Agent>
    </dc:creator>
   </cc:Work>
  </rdf:RDF>
 </metadata>
 <defs>
  <style type="text/css">*{stroke-linejoin: round; stroke-linecap: butt}</style>
 </defs>
 <g id="figure_1">
  <g id="patch_1">
   <path d="M 0 319.73443 
L 936 319.73443 
L 936 0 
L 0 0 
z
" style="fill: #0f0f1a"/>
  </g>
  <g id="axes_1">
   <g id="patch_2">
    <path d="M 160.309046 166.056783 
Q 164.447678 166.056783 167.684922 166.056783 
" style="fill: none; stroke: #3a3a5a; stroke-width: 1.5; stroke-linecap: round"/>
    <path d="M 166.484922 164.256783 
L 167.684922 166.056783 
L 166.484922 167.856783 
" style="fill: none; stroke: #3a3a5a; stroke-width: 1.5; stroke-linecap: round"/>
   </g>
   <g id="patch_3">
    <path d="M 284.185046 166.056783 
Q 288.323678 166.056783 291.560922 166.056783 
" style="fill: none; stroke: #3a3a5a; stroke-width: 1.5; stroke-linecap: round"/>
    <path d="M 290.360922 164.256783 
L 291.560922 166.056783 
L 290.360922 167.856783 
" style="fill: none; stroke: #3a3a5a; stroke-width: 1.5; stroke-linecap: round"/>
   </g>
   <g id="patch_4">
    <path d="M 408.061046 166.056783 
Q 412.199678 166.056783 415.436922 166.056783 
" style="fill: none; stroke: #3a3a5a; stroke-width: 1.5; stroke-linecap: round"/>
    <path d="M 414.236922 164.256783 
L 415.436922 166.056783 
L 414.236922 167.856783 
" style="fill: none; stroke: #3a3a5a; stroke-width: 1.5; stroke-linecap: round"/>
   </g>
   <g id="patch_5">
    <path d="M 531.937046 166.056783 
Q 536.075678 166.056783 539.312922 166.056783 
" style="fill: none; stroke: #3a3a5a; stroke-width: 1.5; stroke-linecap: round"/>
    <path d="M 538.112922 164.256783 
L 539.312922 166.056783 
L 538.112922 167.856783 
" style="fill: none; stroke: #3a3a5a; stroke-width: 1.5; stroke-linecap: round"/>
   </g>
   <g id="patch_6">
    <path d="M 655.813046 166.056783 
Q 659.951678 166.056783 663.188922 166.056783 
" style="fill: none; stroke: #3a3a5a; stroke-width: 1.5; stroke-linecap: round"/>
    <path d="M 661.988922 164.256783 
L 663.188922 166.056783 
L 661.988922 167.856783 
" style="fill: none; stroke: #3a3a5a; stroke-width: 1.5; stroke-linecap: round"/>
   </g>
   <g id="patch_7">
    <path d="M 779.689046 166.056783 
Q 783.827678 166.056783 787.064922 166.056783 
" style="fill: none; stroke: #3a3a5a; stroke-width: 1.5; stroke-linecap: round"/>
    <path d="M 785.864922 164.256783 
L 787.064922 166.056783 
L 785.864922 167.856783 
" style="fill: none; stroke: #3a3a5a; stroke-width: 1.5; stroke-linecap: round"/>
   </g>
   <g id="patch_8">
    <path d="M 49.5 255.576077 
L 155.52 255.576077 
Q 162.216 255.576077 162.216 246.770901 
L 162.216 85.342665 
Q 162.216 76.537489 155.52 76.537489 
L 49.5 76.537489 
Q 42.804 76.537489 42.804 85.342665 
L 42.804 246.770901 
Q 42.804 255.576077 49.5 255.576077 
z
" clip-path="url(#p0c5b0e2584)" style="fill: #1a1a2e; stroke: #2d2d4a; stroke-width: 1.2; stroke-linejoin: miter"/>
   </g>
   <g id="patch_9">
    <path d="M 173.376 255.576077 
L 279.396 255.576077 
Q 286.092 255.576077 286.092 246.770901 
L 286.092 85.342665 
Q 286.092 76.537489 279.396 76.537489 
L 173.376 76.537489 
Q 166.68 76.537489 166.68 85.342665 
L 166.68 246.770901 
Q 166.68 255.576077 173.376 255.576077 
z
" clip-path="url(#p0c5b0e2584)" style="fill: #1a1a2e; stroke: #2d2d4a; stroke-width: 1.2; stroke-linejoin: miter"/>
   </g>
   <g id="patch_10">
    <path d="M 297.252 255.576077 
L 403.272 255.576077 
Q 409.968 255.576077 409.968 246.770901 
L 409.968 85.342665 
Q 409.968 76.537489 403.272 76.537489 
L 297.252 76.537489 
Q 290.556 76.537489 290.556 85.342665 
L 290.556 246.770901 
Q 290.556 255.576077 297.252 255.576077 
z
" clip-path="url(#p0c5b0e2584)" style="fill: #1a1a2e; stroke: #2d2d4a; stroke-width: 1.2; stroke-linejoin: miter"/>
   </g>
   <g id="patch_11">
    <path d="M 421.128 255.576077 
L 527.148 255.576077 
Q 533.844 255.576077 533.844 246.770901 
L 533.844 85.342665 
Q 533.844 76.537489 527.148 76.537489 
L 421.128 76.537489 
Q 414.432 76.537489 414.432 85.342665 
L 414.432 246.770901 
Q 414.432 255.576077 421.128 255.576077 
z
" clip-path="url(#p0c5b0e2584)" style="fill: #1a1a2e; stroke: #2d2d4a; stroke-width: 1.2; stroke-linejoin: miter"/>
   </g>
   <g id="patch_12">
    <path d="M 545.004 255.576077 
L 651.024 255.576077 
Q 657.72 255.576077 657.72 246.770901 
L 657.72 85.342665 
Q 657.72 76.537489 651.024 76.537489 
L 545.004 76.537489 
Q 538.308 76.537489 538.308 85.342665 
L 538.308 246.770901 
Q 538.308 255.576077 545.004 255.576077 
z
" clip-path="url(#p0c5b0e2584)" style="fill: #1a1a2e; stroke: #2d2d4a; stroke-width: 1.2; stroke-linejoin: miter"/>
   </g>
   <g id="patch_13">
    <path d="M 668.88 255.576077 
L 774.9 255.576077 
Q 781.596 255.576077 781.596 246.770901 
L 781.596 85.342665 
Q 781.596 76.537489 774.9 76.537489 
L 668.88 76.537489 
Q 662.184 76.537489 662.184 85.342665 
L 662.184 246.770901 
Q 662.184 255.576077 668.88 255.576077 
z
" clip-path="url(#p0c5b0e2584)" style="fill: #1a1a2e; stroke: #2d2d4a; stroke-width: 1.2; stroke-linejoin: miter"/>
   </g>
   <g id="patch_14">
    <path d="M 792.756 255.576077 
L 898.776 255.576077 
Q 905.472 255.576077 905.472 246.770901 
L 905.472 85.342665 
Q 905.472 76.537489 898.776 76.537489 
L 792.756 76.537489 
Q 786.06 76.537489 786.06 85.342665 
L 786.06 246.770901 
Q 786.06 255.576077 792.756 255.576077 
z
" clip-path="url(#p0c5b0e2584)" style="fill: #1a1a2e; stroke: #2d2d4a; stroke-width: 1.2; stroke-linejoin: miter"/>
   </g>
   <g id="patch_15">
    <path d="M 52.29 113.225724 
L 152.73 113.225724 
Q 156.078 113.225724 156.078 108.823136 
L 156.078 92.680312 
Q 156.078 88.277724 152.73 88.277724 
L 52.29 88.277724 
Q 48.942 88.277724 48.942 92.680312 
L 48.942 108.823136 
Q 48.942 113.225724 52.29 113.225724 
z
" clip-path="url(#p0c5b0e2584)" style="fill: #3a3a5a; opacity: 0.85"/>
   </g>
   <g id="patch_16">
    <path d="M 176.166 113.225724 
L 276.606 113.225724 
Q 279.954 113.225724 279.954 108.823136 
L 279.954 92.680312 
Q 279.954 88.277724 276.606 88.277724 
L 176.166 88.277724 
Q 172.818 88.277724 172.818 92.680312 
L 172.818 108.823136 
Q 172.818 113.225724 176.166 113.225724 
z
" clip-path="url(#p0c5b0e2584)" style="fill: #e8722a; opacity: 0.85"/>
   </g>
   <g id="patch_17">
    <path d="M 300.042 113.225724 
L 400.482 113.225724 
Q 403.83 113.225724 403.83 108.823136 
L 403.83 92.680312 
Q 403.83 88.277724 400.482 88.277724 
L 300.042 88.277724 
Q 296.694 88.277724 296.694 92.680312 
L 296.694 108.823136 
Q 296.694 113.225724 300.042 113.225724 
z
" clip-path="url(#p0c5b0e2584)" style="fill: #e8722a; opacity: 0.85"/>
   </g>
   <g id="patch_18">
    <path d="M 423.918 113.225724 
L 524.358 113.225724 
Q 527.706 113.225724 527.706 108.823136 
L 527.706 92.680312 
Q 527.706 88.277724 524.358 88.277724 
L 423.918 88.277724 
Q 420.57 88.277724 420.57 92.680312 
L 420.57 108.823136 
Q 420.57 113.225724 423.918 113.225724 
z
" clip-path="url(#p0c5b0e2584)" style="fill: #e8722a; opacity: 0.85"/>
   </g>
   <g id="patch_19">
    <path d="M 547.794 113.225724 
L 648.234 113.225724 
Q 651.582 113.225724 651.582 108.823136 
L 651.582 92.680312 
Q 651.582 88.277724 648.234 88.277724 
L 547.794 88.277724 
Q 544.446 88.277724 544.446 92.680312 
L 544.446 108.823136 
Q 544.446 113.225724 547.794 113.225724 
z
" clip-path="url(#p0c5b0e2584)" style="fill: #e8722a; opacity: 0.85"/>
   </g>
   <g id="patch_20">
    <path d="M 671.67 113.225724 
L 772.11 113.225724 
Q 775.458 113.225724 775.458 108.823136 
L 775.458 92.680312 
Q 775.458 88.277724 772.11 88.277724 
L 671.67 88.277724 
Q 668.322 88.277724 668.322 92.680312 
L 668.322 108.823136 
Q 668.322 113.225724 671.67 113.225724 
z
" clip-path="url(#p0c5b0e2584)" style="fill: #e8722a; opacity: 0.85"/>
   </g>
   <g id="patch_21">
    <path d="M 795.546 113.225724 
L 895.986 113.225724 
Q 899.334 113.225724 899.334 108.823136 
L 899.334 92.680312 
Q 899.334 88.277724 895.986 88.277724 
L 795.546 88.277724 
Q 792.198 88.277724 792.198 92.680312 
L 792.198 108.823136 
Q 792.198 113.225724 795.546 113.225724 
z
" clip-path="url(#p0c5b0e2584)" style="fill: #e8722a; opacity: 0.85"/>
   </g>
   <g id="text_1">
    <!-- Model → Silicon: The Full Pipeline -->
    <g style="fill: #f0f0f5" transform="translate(312.872344 35.277187) scale(0.18 -0.18)">
     <defs>
      <path id="DejaVuSans-Bold-4d" d="M 588 4666 
L 2119 4666 
L 3181 2169 
L 4250 4666 
L 5778 4666 
L 5778 0 
L 4641 0 
L 4641 3413 
L 3566 897 
L 2803 897 
L 1728 3413 
L 1728 0 
L 588 0 
L 588 4666 
z
" transform="scale(0.015625)"/>
      <path id="DejaVuSans-Bold-6f" d="M 2203 2784 
Q 1831 2784 1636 2517 
Q 1441 2250 1441 1747 
Q 1441 1244 1636 976 
Q 1831 709 2203 709 
Q 2569 709 2762 976 
Q 2956 1244 2956 1747 
Q 2956 2250 2762 2517 
Q 2569 2784 2203 2784 
z
M 2203 3584 
Q 3106 3584 3614 3096 
Q 4122 2609 4122 1747 
Q 4122 884 3614 396 
Q 3106 -91 2203 -91 
Q 1297 -91 786 396 
Q 275 884 275 1747 
Q 275 2609 786 3096 
Q 1297 3584 2203 3584 
z
" transform="scale(0.015625)"/>
      <path id="DejaVuSans-Bold-64" d="M 2919 2988 
L 2919 4863 
L 4044 4863 
L 4044 0 
L 2919 0 
L 2919 506 
Q 2688 197 2409 53 
Q 2131 -91 1766 -91 
Q 1119 -91 703 423 
Q 288 938 288 1747 
Q 288 2556 703 3070 
Q 1119 3584 1766 3584 
Q 2128 3584 2408 3439 
Q 2688 3294 2919 2988 
z
M 2181 722 
Q 2541 722 2730 984 
Q 2919 1247 2919 1747 
Q 2919 2247 2730 2509 
Q 2541 2772 2181 2772 
Q 1825 2772 1636 2509 
Q 1447 2247 1447 1747 
Q 1447 1247 1636 984 
Q 1825 722 2181 722 
z
" transform="scale(0.015625)"/>
      <path id="DejaVuSans-Bold-65" d="M 4031 1759 
L 4031 1441 
L 1416 1441 
Q 1456 1047 1700 850 
Q 1944 653 2381 653 
Q 2734 653 3104 758 
Q 3475 863 3866 1075 
L 3866 213 
Q 3469 63 3072 -14 
Q 2675 -91 2278 -91 
Q 1328 -91 801 392 
Q 275 875 275 1747 
Q 275 2603 792 3093 
Q 1309 3584 2216 3584 
Q 3041 3584 3536 3087 
Q 4031 2591 4031 1759 
z
M 2881 2131 
Q 2881 2450 2695 2645 
Q 2509 2841 2209 2841 
Q 1884 2841 1681 2658 
Q 1478 2475 1428 2131 
L 2881 2131 
z
" transform="scale(0.015625)"/>
      <path id="DejaVuSans-Bold-6c" d="M 538 4863 
L 1656 4863 
L 1656 0 
L 538 0 
L 538 4863 
z
" transform="scale(0.015625)"/>
      <path id="DejaVuSans-Bold-20" transform="scale(0.015625)"/>
      <path id="DejaVuSans-Bold-2192" d="M 5050 2225 
L 5050 1788 
L 3822 559 
L 3369 1013 
L 3988 1631 
L 366 1631 
L 366 2381 
L 3988 2381 
L 3369 3000 
L 3822 3453 
L 5050 2225 
z
" transform="scale(0.015625)"/>
      <path id="DejaVuSans-Bold-53" d="M 3834 4519 
L 3834 3531 
Q 3450 3703 3084 3790 
Q 2719 3878 2394 3878 
Q 1963 3878 1756 3759 
Q 1550 3641 1550 3391 
Q 1550 3203 1689 3098 
Q 1828 2994 2194 2919 
L 2706 2816 
Q 3484 2659 3812 2340 
Q 4141 2022 4141 1434 
Q 4141 663 3683 286 
Q 3225 -91 2284 -91 
Q 1841 -91 1394 -6 
Q 947 78 500 244 
L 500 1259 
Q 947 1022 1364 901 
Q 1781 781 2169 781 
Q 2563 781 2772 912 
Q 2981 1044 2981 1288 
Q 2981 1506 2839 1625 
Q 2697 1744 2272 1838 
L 1806 1941 
Q 1106 2091 782 2419 
Q 459 2747 459 3303 
Q 459 4000 909 4375 
Q 1359 4750 2203 4750 
Q 2588 4750 2994 4692 
Q 3400 4634 3834 4519 
z
" transform="scale(0.015625)"/>
      <path id="DejaVuSans-Bold-69" d="M 538 3500 
L 1656 3500 
L 1656 0 
L 538 0 
L 538 3500 
z
M 538 4863 
L 1656 4863 
L 1656 3950 
L 538 3950 
L 538 4863 
z
" transform="scale(0.015625)"/>
      <path id="DejaVuSans-Bold-63" d="M 3366 3391 
L 3366 2478 
Q 3138 2634 2908 2709 
Q 2678 2784 2431 2784 
Q 1963 2784 1702 2511 
Q 1441 2238 1441 1747 
Q 1441 1256 1702 982 
Q 1963 709 2431 709 
Q 2694 709 2930 787 
Q 3166 866 3366 1019 
L 3366 103 
Q 3103 6 2833 -42 
Q 2563 -91 2291 -91 
Q 1344 -91 809 395 
Q 275 881 275 1747 
Q 275 2613 809 3098 
Q 1344 3584 2291 3584 
Q 2566 3584 2833 3536 
Q 3100 3488 3366 3391 
z
" transform="scale(0.015625)"/>
      <path id="DejaVuSans-Bold-6e" d="M 4056 2131 
L 4056 0 
L 2931 0 
L 2931 347 
L 2931 1631 
Q 2931 2084 2911 2256 
Q 2891 2428 2841 2509 
Q 2775 2619 2662 2680 
Q 2550 2741 2406 2741 
Q 2056 2741 1856 2470 
Q 1656 2200 1656 1722 
L 1656 0 
L 538 0 
L 538 3500 
L 1656 3500 
L 1656 2988 
Q 1909 3294 2193 3439 
Q 2478 3584 2822 3584 
Q 3428 3584 3742 3212 
Q 4056 2841 4056 2131 
z
" transform="scale(0.015625)"/>
      <path id="DejaVuSans-Bold-3a" d="M 716 3500 
L 1844 3500 
L 1844 2291 
L 716 2291 
L 716 3500 
z
M 716 1209 
L 1844 1209 
L 1844 0 
L 716 0 
L 716 1209 
z
" transform="scale(0.015625)"/>
      <path id="DejaVuSans-Bold-54" d="M 31 4666 
L 4331 4666 
L 4331 3756 
L 2784 3756 
L 2784 0 
L 1581 0 
L 1581 3756 
L 31 3756 
L 31 4666 
z
" transform="scale(0.015625)"/>
      <path id="DejaVuSans-Bold-68" d="M 4056 2131 
L 4056 0 
L 2931 0 
L 2931 347 
L 2931 1625 
Q 2931 2084 2911 2256 
Q 2891 2428 2841 2509 
Q 2775 2619 2662 2680 
Q 2550 2741 2406 2741 
Q 2056 2741 1856 2470 
Q 1656 2200 1656 1722 
L 1656 0 
L 538 0 
L 538 4863 
L 1656 4863 
L 1656 2988 
Q 1909 3294 2193 3439 
Q 2478 3584 2822 3584 
Q 3428 3584 3742 3212 
Q 4056 2841 4056 2131 
z
" transform="scale(0.015625)"/>
      <path id="DejaVuSans-Bold-46" d="M 588 4666 
L 3834 4666 
L 3834 3756 
L 1791 3756 
L 1791 2888 
L 3713 2888 
L 3713 1978 
L 1791 1978 
L 1791 0 
L 588 0 
L 588 4666 
z
" transform="scale(0.015625)"/>
      <path id="DejaVuSans-Bold-75" d="M 500 1363 
L 500 3500 
L 1625 3500 
L 1625 3150 
Q 1625 2866 1622 2436 
Q 1619 2006 1619 1863 
Q 1619 1441 1641 1255 
Q 1663 1069 1716 984 
Q 1784 875 1895 815 
Q 2006 756 2150 756 
Q 2500 756 2700 1025 
Q 2900 1294 2900 1772 
L 2900 3500 
L 4019 3500 
L 4019 0 
L 2900 0 
L 2900 506 
Q 2647 200 2364 54 
Q 2081 -91 1741 -91 
Q 1134 -91 817 281 
Q 500 653 500 1363 
z
" transform="scale(0.015625)"/>
      <path id="DejaVuSans-Bold-50" d="M 588 4666 
L 2584 4666 
Q 3475 4666 3951 4270 
Q 4428 3875 4428 3144 
Q 4428 2409 3951 2014 
Q 3475 1619 2584 1619 
L 1791 1619 
L 1791 0 
L 588 0 
L 588 4666 
z
M 1791 3794 
L 1791 2491 
L 2456 2491 
Q 2806 2491 2997 2661 
Q 3188 2831 3188 3144 
Q 3188 3456 2997 3625 
Q 2806 3794 2456 3794 
L 1791 3794 
z
" transform="scale(0.015625)"/>
      <path id="DejaVuSans-Bold-70" d="M 1656 506 
L 1656 -1331 
L 538 -1331 
L 538 3500 
L 1656 3500 
L 1656 2988 
Q 1888 3294 2169 3439 
Q 2450 3584 2816 3584 
Q 3463 3584 3878 3070 
Q 4294 2556 4294 1747 
Q 4294 938 3878 423 
Q 3463 -91 2816 -91 
Q 2450 -91 2169 54 
Q 1888 200 1656 506 
z
M 2400 2772 
Q 2041 2772 1848 2508 
Q 1656 2244 1656 1747 
Q 1656 1250 1848 986 
Q 2041 722 2400 722 
Q 2759 722 2948 984 
Q 3138 1247 3138 1747 
Q 3138 2247 2948 2509 
Q 2759 2772 2400 2772 
z
" transform="scale(0.015625)"/>
     </defs>
     <use xlink:href="#DejaVuSans-Bold-4d"/>
     <use xlink:href="#DejaVuSans-Bold-6f" transform="translate(99.511719 0)"/>
     <use xlink:href="#DejaVuSans-Bold-64" transform="translate(168.212891 0)"/>
     <use xlink:href="#DejaVuSans-Bold-65" transform="translate(239.794922 0)"/>
     <use xlink:href="#DejaVuSans-Bold-6c" transform="translate(307.617188 0)"/>
     <use xlink:href="#DejaVuSans-Bold-20" transform="translate(341.894531 0)"/>
     <use xlink:href="#DejaVuSans-Bold-2192" transform="translate(376.708984 0)"/>
     <use xlink:href="#DejaVuSans-Bold-20" transform="translate(460.498047 0)"/>
     <use xlink:href="#DejaVuSans-Bold-53" transform="translate(495.3125 0)"/>
     <use xlink:href="#DejaVuSans-Bold-69" transform="translate(567.333984 0)"/>
     <use xlink:href="#DejaVuSans-Bold-6c" transform="translate(601.611328 0)"/>
     <use xlink:href="#DejaVuSans-Bold-69" transform="translate(635.888672 0)"/>
     <use xlink:href="#DejaVuSans-Bold-63" transform="translate(670.166016 0)"/>
     <use xlink:href="#DejaVuSans-Bold-6f" transform="translate(729.443359 0)"/>
     <use xlink:href="#DejaVuSans-Bold-6e" transform="translate(798.144531 0)"/>
     <use xlink:href="#DejaVuSans-Bold-3a" transform="translate(869.335938 0)"/>
     <use xlink:href="#DejaVuSans-Bold-20" transform="translate(909.326172 0)"/>
     <use xlink:href="#DejaVuSans-Bold-54" transform="translate(944.140625 0)"/>
     <use xlink:href="#DejaVuSans-Bold-68" transform="translate(1012.353516 0)"/>
     <use xlink:href="#DejaVuSans-Bold-65" transform="translate(1083.544922 0)"/>
     <use xlink:href="#DejaVuSans-Bold-20" transform="translate(1151.367188 0)"/>
     <use xlink:href="#DejaVuSans-Bold-46" transform="translate(1186.181641 0)"/>
     <use xlink:href="#DejaVuSans-Bold-75" transform="translate(1249.492188 0)"/>
     <use xlink:href="#DejaVuSans-Bold-6c" transform="translate(1320.683594 0)"/>
     <use xlink:href="#DejaVuSans-Bold-6c" transform="translate(1354.960938 0)"/>
     <use xlink:href="#DejaVuSans-Bold-20" transform="translate(1389.238281 0)"/>
     <use xlink:href="#DejaVuSans-Bold-50" transform="translate(1424.052734 0)"/>
     <use xlink:href="#DejaVuSans-Bold-69" transform="translate(1497.34375 0)"/>
     <use xlink:href="#DejaVuSans-Bold-70" transform="translate(1531.621094 0)"/>
     <use xlink:href="#DejaVuSans-Bold-65" transform="translate(1603.203125 0)"/>
     <use xlink:href="#DejaVuSans-Bold-6c" transform="translate(1671.025391 0)"/>
     <use xlink:href="#DejaVuSans-Bold-69" transform="translate(1705.302734 0)"/>
     <use xlink:href="#DejaVuSans-Bold-6e" transform="translate(1739.580078 0)"/>
     <use xlink:href="#DejaVuSans-Bold-65" transform="translate(1810.771484 0)"/>
    </g>
   </g>
   <g id="text_2">
    <!-- torch2rtl  ·  GPDK045 45nm  ·  all artifacts checked in and reproducible -->
    <g style="fill: #6a6a8a" transform="translate(322.384922 54.806691) scale(0.09 -0.09)">
     <defs>
      <path id="DejaVuSans-74" d="M 1172 4494 
L 1172 3500 
L 2356 3500 
L 2356 3053 
L 1172 3053 
L 1172 1153 
Q 1172 725 1289 603 
Q 1406 481 1766 481 
L 2356 481 
L 2356 0 
L 1766 0 
Q 1100 0 847 248 
Q 594 497 594 1153 
L 594 3053 
L 172 3053 
L 172 3500 
L 594 3500 
L 594 4494 
L 1172 4494 
z
" transform="scale(0.015625)"/>
      <path id="DejaVuSans-6f" d="M 1959 3097 
Q 1497 3097 1228 2736 
Q 959 2375 959 1747 
Q 959 1119 1226 758 
Q 1494 397 1959 397 
Q 2419 397 2687 759 
Q 2956 1122 2956 1747 
Q 2956 2369 2687 2733 
Q 2419 3097 1959 3097 
z
M 1959 3584 
Q 2709 3584 3137 3096 
Q 3566 2609 3566 1747 
Q 3566 888 3137 398 
Q 2709 -91 1959 -91 
Q 1206 -91 779 398 
Q 353 888 353 1747 
Q 353 2609 779 3096 
Q 1206 3584 1959 3584 
z
" transform="scale(0.015625)"/>
      <path id="DejaVuSans-72" d="M 2631 2963 
Q 2534 3019 2420 3045 
Q 2306 3072 2169 3072 
Q 1681 3072 1420 2755 
Q 1159 2438 1159 1844 
L 1159 0 
L 581 0 
L 581 3500 
L 1159 3500 
L 1159 2956 
Q 1341 3275 1631 3429 
Q 1922 3584 2338 3584 
Q 2397 3584 2469 3576 
Q 2541 3569 2628 3553 
L 2631 2963 
z
" transform="scale(0.015625)"/>
      <path id="DejaVuSans-63" d="M 3122 3366 
L 3122 2828 
Q 2878 2963 2633 3030 
Q 2388 3097 2138 3097 
Q 1578 3097 1268 2742 
Q 959 2388 959 1747 
Q 959 1106 1268 751 
Q 1578 397 2138 397 
Q 2388 397 2633 464 
Q 2878 531 3122 666 
L 3122 134 
Q 2881 22 2623 -34 
Q 2366 -91 2075 -91 
Q 1284 -91 818 406 
Q 353 903 353 1747 
Q 353 2603 823 3093 
Q 1294 3584 2113 3584 
Q 2378 3584 2631 3529 
Q 2884 3475 3122 3366 
z
" transform="scale(0.015625)"/>
      <path id="DejaVuSans-68" d="M 3513 2113 
L 3513 0 
L 2938 0 
L 2938 2094 
Q 2938 2591 2744 2837 
Q 2550 3084 2163 3084 
Q 1697 3084 1428 2787 
Q 1159 2491 1159 1978 
L 1159 0 
L 581 0 
L 581 4863 
L 1159 4863 
L 1159 2956 
Q 1366 3272 1645 3428 
Q 1925 3584 2291 3584 
Q 2894 3584 3203 3211 
Q 3513 2838 3513 2113 
z
" transform="scale(0.015625)"/>
      <path id="DejaVuSans-32" d="M 1228 531 
L 3431 531 
L 3431 0 
L 469 0 
L 469 531 
Q 828 903 1448 1529 
Q 2069 2156 2228 2338 
Q 2531 2678 2651 2914 
Q 2772 3150 2772 3378 
Q 2772 3750 2511 3984 
Q 2250 4219 1831 4219 
Q 1534 4219 1204 4116 
Q 875 4013 500 3803 
L 500 4441 
Q 881 4594 1212 4672 
Q 1544 4750 1819 4750 
Q 2544 4750 2975 4387 
Q 3406 4025 3406 3419 
Q 3406 3131 3298 2873 
Q 3191 2616 2906 2266 
Q 2828 2175 2409 1742 
Q 1991 1309 1228 531 
z
" transform="scale(0.015625)"/>
      <path id="DejaVuSans-6c" d="M 603 4863 
L 1178 4863 
L 1178 0 
L 603 0 
L 603 4863 
z
" transform="scale(0.015625)"/>
      <path id="DejaVuSans-20" transform="scale(0.015625)"/>
      <path id="DejaVuSans-b7" d="M 684 2619 
L 1344 2619 
L 1344 1825 
L 684 1825 
L 684 2619 
z
" transform="scale(0.015625)"/>
      <path id="DejaVuSans-47" d="M 3809 666 
L 3809 1919 
L 2778 1919 
L 2778 2438 
L 4434 2438 
L 4434 434 
Q 4069 175 3628 42 
Q 3188 -91 2688 -91 
Q 1594 -91 976 548 
Q 359 1188 359 2328 
Q 359 3472 976 4111 
Q 1594 4750 2688 4750 
Q 3144 4750 3555 4637 
Q 3966 4525 4313 4306 
L 4313 3634 
Q 3963 3931 3569 4081 
Q 3175 4231 2741 4231 
Q 1884 4231 1454 3753 
Q 1025 3275 1025 2328 
Q 1025 1384 1454 906 
Q 1884 428 2741 428 
Q 3075 428 3337 486 
Q 3600 544 3809 666 
z
" transform="scale(0.015625)"/>
      <path id="DejaVuSans-50" d="M 1259 4147 
L 1259 2394 
L 2053 2394 
Q 2494 2394 2734 2622 
Q 2975 2850 2975 3272 
Q 2975 3691 2734 3919 
Q 2494 4147 2053 4147 
L 1259 4147 
z
M 628 4666 
L 2053 4666 
Q 2838 4666 3239 4311 
Q 3641 3956 3641 3272 
Q 3641 2581 3239 2228 
Q 2838 1875 2053 1875 
L 1259 1875 
L 1259 0 
L 628 0 
L 628 4666 
z
" transform="scale(0.015625)"/>
      <path id="DejaVuSans-44" d="M 1259 4147 
L 1259 519 
L 2022 519 
Q 2988 519 3436 956 
Q 3884 1394 3884 2338 
Q 3884 3275 3436 3711 
Q 2988 4147 2022 4147 
L 1259 4147 
z
M 628 4666 
L 1925 4666 
Q 3281 4666 3915 4102 
Q 4550 3538 4550 2338 
Q 4550 1131 3912 565 
Q 3275 0 1925 0 
L 628 0 
L 628 4666 
z
" transform="scale(0.015625)"/>
      <path id="DejaVuSans-4b" d="M 628 4666 
L 1259 4666 
L 1259 2694 
L 3353 4666 
L 4166 4666 
L 1850 2491 
L 4331 0 
L 3500 0 
L 1259 2247 
L 1259 0 
L 628 0 
L 628 4666 
z
" transform="scale(0.015625)"/>
      <path id="DejaVuSans-30" d="M 2034 4250 
Q 1547 4250 1301 3770 
Q 1056 3291 1056 2328 
Q 1056 1369 1301 889 
Q 1547 409 2034 409 
Q 2525 409 2770 889 
Q 3016 1369 3016 2328 
Q 3016 3291 2770 3770 
Q 2525 4250 2034 4250 
z
M 2034 4750 
Q 2819 4750 3233 4129 
Q 3647 3509 3647 2328 
Q 3647 1150 3233 529 
Q 2819 -91 2034 -91 
Q 1250 -91 836 529 
Q 422 1150 422 2328 
Q 422 3509 836 4129 
Q 1250 4750 2034 4750 
z
" transform="scale(0.015625)"/>
      <path id="DejaVuSans-34" d="M 2419 4116 
L 825 1625 
L 2419 1625 
L 2419 4116 
z
M 2253 4666 
L 3047 4666 
L 3047 1625 
L 3713 1625 
L 3713 1100 
L 3047 1100 
L 3047 0 
L 2419 0 
L 2419 1100 
L 313 1100 
L 313 1709 
L 2253 4666 
z
" transform="scale(0.015625)"/>
      <path id="DejaVuSans-35" d="M 691 4666 
L 3169 4666 
L 3169 4134 
L 1269 4134 
L 1269 2991 
Q 1406 3038 1543 3061 
Q 1681 3084 1819 3084 
Q 2600 3084 3056 2656 
Q 3513 2228 3513 1497 
Q 3513 744 3044 326 
Q 2575 -91 1722 -91 
Q 1428 -91 1123 -41 
Q 819 9 494 109 
L 494 744 
Q 775 591 1075 516 
Q 1375 441 1709 441 
Q 2250 441 2565 725 
Q 2881 1009 2881 1497 
Q 2881 1984 2565 2268 
Q 2250 2553 1709 2553 
Q 1456 2553 1204 2497 
Q 953 2441 691 2322 
L 691 4666 
z
" transform="scale(0.015625)"/>
      <path id="DejaVuSans-6e" d="M 3513 2113 
L 3513 0 
L 2938 0 
L 2938 2094 
Q 2938 2591 2744 2837 
Q 2550 3084 2163 3084 
Q 1697 3084 1428 2787 
Q 1159 2491 1159 1978 
L 1159 0 
L 581 0 
L 581 3500 
L 1159 3500 
L 1159 2956 
Q 1366 3272 1645 3428 
Q 1925 3584 2291 3584 
Q 2894 3584 3203 3211 
Q 3513 2838 3513 2113 
z
" transform="scale(0.015625)"/>
      <path id="DejaVuSans-6d" d="M 3328 2828 
Q 3544 3216 3844 3400 
Q 4144 3584 4550 3584 
Q 5097 3584 5394 3201 
Q 5691 2819 5691 2113 
L 5691 0 
L 5113 0 
L 5113 2094 
Q 5113 2597 4934 2840 
Q 4756 3084 4391 3084 
Q 3944 3084 3684 2787 
Q 3425 2491 3425 1978 
L 3425 0 
L 2847 0 
L 2847 2094 
Q 2847 2600 2669 2842 
Q 2491 3084 2119 3084 
Q 1678 3084 1418 2786 
Q 1159 2488 1159 1978 
L 1159 0 
L 581 0 
L 581 3500 
L 1159 3500 
L 1159 2956 
Q 1356 3278 1631 3431 
Q 1906 3584 2284 3584 
Q 2666 3584 2933 3390 
Q 3200 3197 3328 2828 
z
" transform="scale(0.015625)"/>
      <path id="DejaVuSans-61" d="M 2194 1759 
Q 1497 1759 1228 1600 
Q 959 1441 959 1056 
Q 959 750 1161 570 
Q 1363 391 1709 391 
Q 2188 391 2477 730 
Q 2766 1069 2766 1631 
L 2766 1759 
L 2194 1759 
z
M 3341 1997 
L 3341 0 
L 2766 0 
L 2766 531 
Q 2569 213 2275 61 
Q 1981 -91 1556 -91 
Q 1019 -91 701 211 
Q 384 513 384 1019 
Q 384 1609 779 1909 
Q 1175 2209 1959 2209 
L 2766 2209 
L 2766 2266 
Q 2766 2663 2505 2880 
Q 2244 3097 1772 3097 
Q 1472 3097 1187 3025 
Q 903 2953 641 2809 
L 641 3341 
Q 956 3463 1253 3523 
Q 1550 3584 1831 3584 
Q 2591 3584 2966 3190 
Q 3341 2797 3341 1997 
z
" transform="scale(0.015625)"/>
      <path id="DejaVuSans-69" d="M 603 3500 
L 1178 3500 
L 1178 0 
L 603 0 
L 603 3500 
z
M 603 4863 
L 1178 4863 
L 1178 4134 
L 603 4134 
L 603 4863 
z
" transform="scale(0.015625)"/>
      <path id="DejaVuSans-66" d="M 2375 4863 
L 2375 4384 
L 1825 4384 
Q 1516 4384 1395 4259 
Q 1275 4134 1275 3809 
L 1275 3500 
L 2222 3500 
L 2222 3053 
L 1275 3053 
L 1275 0 
L 697 0 
L 697 3053 
L 147 3053 
L 147 3500 
L 697 3500 
L 697 3744 
Q 697 4328 969 4595 
Q 1241 4863 1831 4863 
L 2375 4863 
z
" transform="scale(0.015625)"/>
      <path id="DejaVuSans-73" d="M 2834 3397 
L 2834 2853 
Q 2591 2978 2328 3040 
Q 2066 3103 1784 3103 
Q 1356 3103 1142 2972 
Q 928 2841 928 2578 
Q 928 2378 1081 2264 
Q 1234 2150 1697 2047 
L 1894 2003 
Q 2506 1872 2764 1633 
Q 3022 1394 3022 966 
Q 3022 478 2636 193 
Q 2250 -91 1575 -91 
Q 1294 -91 989 -36 
Q 684 19 347 128 
L 347 722 
Q 666 556 975 473 
Q 1284 391 1588 391 
Q 1994 391 2212 530 
Q 2431 669 2431 922 
Q 2431 1156 2273 1281 
Q 2116 1406 1581 1522 
L 1381 1569 
Q 847 1681 609 1914 
Q 372 2147 372 2553 
Q 372 3047 722 3315 
Q 1072 3584 1716 3584 
Q 2034 3584 2315 3537 
Q 2597 3491 2834 3397 
z
" transform="scale(0.015625)"/>
      <path id="DejaVuSans-65" d="M 3597 1894 
L 3597 1613 
L 953 1613 
Q 991 1019 1311 708 
Q 1631 397 2203 397 
Q 2534 397 2845 478 
Q 3156 559 3463 722 
L 3463 178 
Q 3153 47 2828 -22 
Q 2503 -91 2169 -91 
Q 1331 -91 842 396 
Q 353 884 353 1716 
Q 353 2575 817 3079 
Q 1281 3584 2069 3584 
Q 2775 3584 3186 3129 
Q 3597 2675 3597 1894 
z
M 3022 2063 
Q 3016 2534 2758 2815 
Q 2500 3097 2075 3097 
Q 1594 3097 1305 2825 
Q 1016 2553 972 2059 
L 3022 2063 
z
" transform="scale(0.015625)"/>
      <path id="DejaVuSans-6b" d="M 581 4863 
L 1159 4863 
L 1159 1991 
L 2875 3500 
L 3609 3500 
L 1753 1863 
L 3688 0 
L 2938 0 
L 1159 1709 
L 1159 0 
L 581 0 
L 581 4863 
z
" transform="scale(0.015625)"/>
      <path id="DejaVuSans-64" d="M 2906 2969 
L 2906 4863 
L 3481 4863 
L 3481 0 
L 2906 0 
L 2906 525 
Q 2725 213 2448 61 
Q 2172 -91 1784 -91 
Q 1150 -91 751 415 
Q 353 922 353 1747 
Q 353 2572 751 3078 
Q 1150 3584 1784 3584 
Q 2172 3584 2448 3432 
Q 2725 3281 2906 2969 
z
M 947 1747 
Q 947 1113 1208 752 
Q 1469 391 1925 391 
Q 2381 391 2643 752 
Q 2906 1113 2906 1747 
Q 2906 2381 2643 2742 
Q 2381 3103 1925 3103 
Q 1469 3103 1208 2742 
Q 947 2381 947 1747 
z
" transform="scale(0.015625)"/>
      <path id="DejaVuSans-70" d="M 1159 525 
L 1159 -1331 
L 581 -1331 
L 581 3500 
L 1159 3500 
L 1159 2969 
Q 1341 3281 1617 3432 
Q 1894 3584 2278 3584 
Q 2916 3584 3314 3078 
Q 3713 2572 3713 1747 
Q 3713 922 3314 415 
Q 2916 -91 2278 -91 
Q 1894 -91 1617 61 
Q 1341 213 1159 525 
z
M 3116 1747 
Q 3116 2381 2855 2742 
Q 2594 3103 2138 3103 
Q 1681 3103 1420 2742 
Q 1159 2381 1159 1747 
Q 1159 1113 1420 752 
Q 1681 391 2138 391 
Q 2594 391 2855 752 
Q 3116 1113 3116 1747 
z
" transform="scale(0.015625)"/>
      <path id="DejaVuSans-75" d="M 544 1381 
L 544 3500 
L 1119 3500 
L 1119 1403 
Q 1119 906 1312 657 
Q 1506 409 1894 409 
Q 2359 409 2629 706 
Q 2900 1003 2900 1516 
L 2900 3500 
L 3475 3500 
L 3475 0 
L 2900 0 
L 2900 538 
Q 2691 219 2414 64 
Q 2138 -91 1772 -91 
Q 1169 -91 856 284 
Q 544 659 544 1381 
z
M 1991 3584 
L 1991 3584 
z
" transform="scale(0.015625)"/>
      <path id="DejaVuSans-62" d="M 3116 1747 
Q 3116 2381 2855 2742 
Q 2594 3103 2138 3103 
Q 1681 3103 1420 2742 
Q 1159 2381 1159 1747 
Q 1159 1113 1420 752 
Q 1681 391 2138 391 
Q 2594 391 2855 752 
Q 3116 1113 3116 1747 
z
M 1159 2969 
Q 1341 3281 1617 3432 
Q 1894 3584 2278 3584 
Q 2916 3584 3314 3078 
Q 3713 2572 3713 1747 
Q 3713 922 3314 415 
Q 2916 -91 2278 -91 
Q 1894 -91 1617 61 
Q 1341 213 1159 525 
L 1159 0 
L 581 0 
L 581 4863 
L 1159 4863 
L 1159 2969 
z
" transform="scale(0.015625)"/>
     </defs>
     <use xlink:href="#DejaVuSans-74"/>
     <use xlink:href="#DejaVuSans-6f" transform="translate(39.208984 0)"/>
     <use xlink:href="#DejaVuSans-72" transform="translate(100.390625 0)"/>
     <use xlink:href="#DejaVuSans-63" transform="translate(139.253906 0)"/>
     <use xlink:href="#DejaVuSans-68" transform="translate(194.234375 0)"/>
     <use xlink:href="#DejaVuSans-32" transform="translate(257.613281 0)"/>
     <use xlink:href="#DejaVuSans-72" transform="translate(321.236328 0)"/>
     <use xlink:href="#DejaVuSans-74" transform="translate(362.349609 0)"/>
     <use xlink:href="#DejaVuSans-6c" transform="translate(401.558594 0)"/>
     <use xlink:href="#DejaVuSans-20" transform="translate(429.341797 0)"/>
     <use xlink:href="#DejaVuSans-20" transform="translate(461.128906 0)"/>
     <use xlink:href="#DejaVuSans-b7" transform="translate(492.916016 0)"/>
     <use xlink:href="#DejaVuSans-20" transform="translate(524.703125 0)"/>
     <use xlink:href="#DejaVuSans-20" transform="translate(556.490234 0)"/>
     <use xlink:href="#DejaVuSans-47" transform="translate(588.277344 0)"/>
     <use xlink:href="#DejaVuSans-50" transform="translate(665.767578 0)"/>
     <use xlink:href="#DejaVuSans-44" transform="translate(726.070312 0)"/>
     <use xlink:href="#DejaVuSans-4b" transform="translate(803.072266 0)"/>
     <use xlink:href="#DejaVuSans-30" transform="translate(868.648438 0)"/>
     <use xlink:href="#DejaVuSans-34" transform="translate(932.271484 0)"/>
     <use xlink:href="#DejaVuSans-35" transform="translate(995.894531 0)"/>
     <use xlink:href="#DejaVuSans-20" transform="translate(1059.517578 0)"/>
     <use xlink:href="#DejaVuSans-34" transform="translate(1091.304688 0)"/>
     <use xlink:href="#DejaVuSans-35" transform="translate(1154.927734 0)"/>
     <use xlink:href="#DejaVuSans-6e" transform="translate(1218.550781 0)"/>
     <use xlink:href="#DejaVuSans-6d" transform="translate(1281.929688 0)"/>
     <use xlink:href="#DejaVuSans-20" transform="translate(1379.341797 0)"/>
     <use xlink:href="#DejaVuSans-20" transform="translate(1411.128906 0)"/>
     <use xlink:href="#DejaVuSans-b7" transform="translate(1442.916016 0)"/>
     <use xlink:href="#DejaVuSans-20" transform="translate(1474.703125 0)"/>
     <use xlink:href="#DejaVuSans-20" transform="translate(1506.490234 0)"/>
     <use xlink:href="#DejaVuSans-61" transform="translate(1538.277344 0)"/>
     <use xlink:href="#DejaVuSans-6c" transform="translate(1599.556641 0)"/>
     <use xlink:href="#DejaVuSans-6c" transform="translate(1627.339844 0)"/>
     <use xlink:href="#DejaVuSans-20" transform="translate(1655.123047 0)"/>
     <use xlink:href="#DejaVuSans-61" transform="translate(1686.910156 0)"/>
     <use xlink:href="#DejaVuSans-72" transform="translate(1748.189453 0)"/>
     <use xlink:href="#DejaVuSans-74" transform="translate(1789.302734 0)"/>
     <use xlink:href="#DejaVuSans-69" transform="translate(1828.511719 0)"/>
     <use xlink:href="#DejaVuSans-66" transform="translate(1856.294922 0)"/>
     <use xlink:href="#DejaVuSans-61" transform="translate(1891.5 0)"/>
     <use xlink:href="#DejaVuSans-63" transform="translate(1952.779297 0)"/>
     <use xlink:href="#DejaVuSans-74" transform="translate(2007.759766 0)"/>
     <use xlink:href="#DejaVuSans-73" transform="translate(2046.96875 0)"/>
     <use xlink:href="#DejaVuSans-20" transform="translate(2099.068359 0)"/>
     <use xlink:href="#DejaVuSans-63" transform="translate(2130.855469 0)"/>
     <use xlink:href="#DejaVuSans-68" transform="translate(2185.835938 0)"/>
     <use xlink:href="#DejaVuSans-65" transform="translate(2249.214844 0)"/>
     <use xlink:href="#DejaVuSans-63" transform="translate(2310.738281 0)"/>
     <use xlink:href="#DejaVuSans-6b" transform="translate(2365.71875 0)"/>
     <use xlink:href="#DejaVuSans-65" transform="translate(2420.003906 0)"/>
     <use xlink:href="#DejaVuSans-64" transform="translate(2481.527344 0)"/>
     <use xlink:href="#DejaVuSans-20" transform="translate(2545.003906 0)"/>
     <use xlink:href="#DejaVuSans-69" transform="translate(2576.791016 0)"/>
     <use xlink:href="#DejaVuSans-6e" transform="translate(2604.574219 0)"/>
     <use xlink:href="#DejaVuSans-20" transform="translate(2667.953125 0)"/>
     <use xlink:href="#DejaVuSans-61" transform="translate(2699.740234 0)"/>
     <use xlink:href="#DejaVuSans-6e" transform="translate(2761.019531 0)"/>
     <use xlink:href="#DejaVuSans-64" transform="translate(2824.398438 0)"/>
     <use xlink:href="#DejaVuSans-20" transform="translate(2887.875 0)"/>
     <use xlink:href="#DejaVuSans-72" transform="translate(2919.662109 0)"/>
     <use xlink:href="#DejaVuSans-65" transform="translate(2958.525391 0)"/>
     <use xlink:href="#DejaVuSans-70" transform="translate(3020.048828 0)"/>
     <use xlink:href="#DejaVuSans-72" transform="translate(3083.525391 0)"/>
     <use xlink:href="#DejaVuSans-6f" transform="translate(3122.388672 0)"/>
     <use xlink:href="#DejaVuSans-64" transform="translate(3183.570312 0)"/>
     <use xlink:href="#DejaVuSans-75" transform="translate(3247.046875 0)"/>
     <use xlink:href="#DejaVuSans-63" transform="translate(3310.425781 0)"/>
     <use xlink:href="#DejaVuSans-69" transform="translate(3365.40625 0)"/>
     <use xlink:href="#DejaVuSans-62" transform="translate(3393.189453 0)"/>
     <use xlink:href="#DejaVuSans-6c" transform="translate(3456.666016 0)"/>
     <use xlink:href="#DejaVuSans-65" transform="translate(3484.449219 0)"/>
    </g>
   </g>
   <g id="text_3">
    <!-- Model -->
    <g style="fill: #f0f0f5" transform="translate(86.269453 103.373131) scale(0.095 -0.095)">
     <use xlink:href="#DejaVuSans-Bold-4d"/>
     <use xlink:href="#DejaVuSans-Bold-6f" transform="translate(99.511719 0)"/>
     <use xlink:href="#DejaVuSans-Bold-64" transform="translate(168.212891 0)"/>
     <use xlink:href="#DejaVuSans-Bold-65" transform="translate(239.794922 0)"/>
     <use xlink:href="#DejaVuSans-Bold-6c" transform="translate(307.617188 0)"/>
    </g>
   </g>
   <g id="text_4">
    <!-- 16→16→4 -->
    <g style="fill: #f0f0f5" transform="translate(63.848672 188.539963) scale(0.15 -0.15)">
     <defs>
      <path id="DejaVuSans-Bold-31" d="M 750 831 
L 1813 831 
L 1813 3847 
L 722 3622 
L 722 4441 
L 1806 4666 
L 2950 4666 
L 2950 831 
L 4013 831 
L 4013 0 
L 750 0 
L 750 831 
z
" transform="scale(0.015625)"/>
      <path id="DejaVuSans-Bold-36" d="M 2316 2303 
Q 2000 2303 1842 2098 
Q 1684 1894 1684 1484 
Q 1684 1075 1842 870 
Q 2000 666 2316 666 
Q 2634 666 2792 870 
Q 2950 1075 2950 1484 
Q 2950 1894 2792 2098 
Q 2634 2303 2316 2303 
z
M 3803 4544 
L 3803 3681 
Q 3506 3822 3243 3889 
Q 2981 3956 2731 3956 
Q 2194 3956 1894 3657 
Q 1594 3359 1544 2772 
Q 1750 2925 1990 3001 
Q 2231 3078 2516 3078 
Q 3231 3078 3670 2659 
Q 4109 2241 4109 1563 
Q 4109 813 3618 361 
Q 3128 -91 2303 -91 
Q 1394 -91 895 523 
Q 397 1138 397 2266 
Q 397 3422 980 4083 
Q 1563 4744 2578 4744 
Q 2900 4744 3203 4694 
Q 3506 4644 3803 4544 
z
" transform="scale(0.015625)"/>
      <path id="DejaVuSans-Bold-34" d="M 2356 3675 
L 1038 1722 
L 2356 1722 
L 2356 3675 
z
M 2156 4666 
L 3494 4666 
L 3494 1722 
L 4159 1722 
L 4159 850 
L 3494 850 
L 3494 0 
L 2356 0 
L 2356 850 
L 288 850 
L 288 1881 
L 2156 4666 
z
" transform="scale(0.015625)"/>
     </defs>
     <use xlink:href="#DejaVuSans-Bold-31"/>
     <use xlink:href="#DejaVuSans-Bold-36" transform="translate(69.580078 0)"/>
     <use xlink:href="#DejaVuSans-Bold-2192" transform="translate(139.160156 0)"/>
     <use xlink:href="#DejaVuSans-Bold-31" transform="translate(222.949219 0)"/>
     <use xlink:href="#DejaVuSans-Bold-36" transform="translate(292.529297 0)"/>
     <use xlink:href="#DejaVuSans-Bold-2192" transform="translate(362.109375 0)"/>
     <use xlink:href="#DejaVuSans-Bold-34" transform="translate(445.898438 0)"/>
    </g>
   </g>
   <g id="text_5">
    <!-- quantized MLP -->
    <g style="fill: #6a6a8a" transform="translate(75.13207 228.29502) scale(0.075 -0.075)">
     <defs>
      <path id="DejaVuSans-71" d="M 947 1747 
Q 947 1113 1208 752 
Q 1469 391 1925 391 
Q 2381 391 2643 752 
Q 2906 1113 2906 1747 
Q 2906 2381 2643 2742 
Q 2381 3103 1925 3103 
Q 1469 3103 1208 2742 
Q 947 2381 947 1747 
z
M 2906 525 
Q 2725 213 2448 61 
Q 2172 -91 1784 -91 
Q 1150 -91 751 415 
Q 353 922 353 1747 
Q 353 2572 751 3078 
Q 1150 3584 1784 3584 
Q 2172 3584 2448 3432 
Q 2725 3281 2906 2969 
L 2906 3500 
L 3481 3500 
L 3481 -1331 
L 2906 -1331 
L 2906 525 
z
" transform="scale(0.015625)"/>
      <path id="DejaVuSans-7a" d="M 353 3500 
L 3084 3500 
L 3084 2975 
L 922 459 
L 3084 459 
L 3084 0 
L 275 0 
L 275 525 
L 2438 3041 
L 353 3041 
L 353 3500 
z
" transform="scale(0.015625)"/>
      <path id="DejaVuSans-4d" d="M 628 4666 
L 1569 4666 
L 2759 1491 
L 3956 4666 
L 4897 4666 
L 4897 0 
L 4281 0 
L 4281 4097 
L 3078 897 
L 2444 897 
L 1241 4097 
L 1241 0 
L 628 0 
L 628 4666 
z
" transform="scale(0.015625)"/>
      <path id="DejaVuSans-4c" d="M 628 4666 
L 1259 4666 
L 1259 531 
L 3531 531 
L 3531 0 
L 628 0 
L 628 4666 
z
" transform="scale(0.015625)"/>
     </defs>
     <use xlink:href="#DejaVuSans-71"/>
     <use xlink:href="#DejaVuSans-75" transform="translate(63.476562 0)"/>
     <use xlink:href="#DejaVuSans-61" transform="translate(126.855469 0)"/>
     <use xlink:href="#DejaVuSans-6e" transform="translate(188.134766 0)"/>
     <use xlink:href="#DejaVuSans-74" transform="translate(251.513672 0)"/>
     <use xlink:href="#DejaVuSans-69" transform="translate(290.722656 0)"/>
     <use xlink:href="#DejaVuSans-7a" transform="translate(318.505859 0)"/>
     <use xlink:href="#DejaVuSans-65" transform="translate(370.996094 0)"/>
     <use xlink:href="#DejaVuSans-64" transform="translate(432.519531 0)"/>
     <use xlink:href="#DejaVuSans-20" transform="translate(495.996094 0)"/>
     <use xlink:href="#DejaVuSans-4d" transform="translate(527.783203 0)"/>
     <use xlink:href="#DejaVuSans-4c" transform="translate(614.0625 0)"/>
     <use xlink:href="#DejaVuSans-50" transform="translate(669.775391 0)"/>
    </g>
   </g>
   <g id="text_6">
    <!-- Compile -->
    <g style="fill: #f0f0f5" transform="translate(204.808383 103.373131) scale(0.095 -0.095)">
     <defs>
      <path id="DejaVuSans-Bold-43" d="M 4288 256 
Q 3956 84 3597 -3 
Q 3238 -91 2847 -91 
Q 1681 -91 1000 561 
Q 319 1213 319 2328 
Q 319 3447 1000 4098 
Q 1681 4750 2847 4750 
Q 3238 4750 3597 4662 
Q 3956 4575 4288 4403 
L 4288 3438 
Q 3953 3666 3628 3772 
Q 3303 3878 2944 3878 
Q 2300 3878 1931 3465 
Q 1563 3053 1563 2328 
Q 1563 1606 1931 1193 
Q 2300 781 2944 781 
Q 3303 781 3628 887 
Q 3953 994 4288 1222 
L 4288 256 
z
" transform="scale(0.015625)"/>
      <path id="DejaVuSans-Bold-6d" d="M 3781 2919 
Q 3994 3244 4286 3414 
Q 4578 3584 4928 3584 
Q 5531 3584 5847 3212 
Q 6163 2841 6163 2131 
L 6163 0 
L 5038 0 
L 5038 1825 
Q 5041 1866 5042 1909 
Q 5044 1953 5044 2034 
Q 5044 2406 4934 2573 
Q 4825 2741 4581 2741 
Q 4263 2741 4089 2478 
Q 3916 2216 3909 1719 
L 3909 0 
L 2784 0 
L 2784 1825 
Q 2784 2406 2684 2573 
Q 2584 2741 2328 2741 
Q 2006 2741 1831 2477 
Q 1656 2213 1656 1722 
L 1656 0 
L 531 0 
L 531 3500 
L 1656 3500 
L 1656 2988 
Q 1863 3284 2130 3434 
Q 2397 3584 2719 3584 
Q 3081 3584 3359 3409 
Q 3638 3234 3781 2919 
z
" transform="scale(0.015625)"/>
     </defs>
     <use xlink:href="#DejaVuSans-Bold-43"/>
     <use xlink:href="#DejaVuSans-Bold-6f" transform="translate(73.388672 0)"/>
     <use xlink:href="#DejaVuSans-Bold-6d" transform="translate(142.089844 0)"/>
     <use xlink:href="#DejaVuSans-Bold-70" transform="translate(246.289062 0)"/>
     <use xlink:href="#DejaVuSans-Bold-69" transform="translate(317.871094 0)"/>
     <use xlink:href="#DejaVuSans-Bold-6c" transform="translate(352.148438 0)"/>
     <use xlink:href="#DejaVuSans-Bold-65" transform="translate(386.425781 0)"/>
    </g>
   </g>
   <g id="text_7">
    <!-- torch2gpu.py -->
    <g style="fill: #6a6a8a" transform="translate(199.294594 132.879827) scale(0.075 -0.075)">
     <defs>
      <path id="DejaVuSansMono-74" d="M 1919 4494 
L 1919 3500 
L 3225 3500 
L 3225 3053 
L 1919 3053 
L 1919 1153 
Q 1919 766 2066 612 
Q 2213 459 2578 459 
L 3225 459 
L 3225 0 
L 2522 0 
Q 1875 0 1609 259 
Q 1344 519 1344 1153 
L 1344 3053 
L 409 3053 
L 409 3500 
L 1344 3500 
L 1344 4494 
L 1919 4494 
z
" transform="scale(0.015625)"/>
      <path id="DejaVuSansMono-6f" d="M 1925 3097 
Q 1488 3097 1263 2756 
Q 1038 2416 1038 1747 
Q 1038 1081 1263 739 
Q 1488 397 1925 397 
Q 2366 397 2591 739 
Q 2816 1081 2816 1747 
Q 2816 2416 2591 2756 
Q 2366 3097 1925 3097 
z
M 1925 3584 
Q 2653 3584 3039 3112 
Q 3425 2641 3425 1747 
Q 3425 850 3040 379 
Q 2656 -91 1925 -91 
Q 1197 -91 812 379 
Q 428 850 428 1747 
Q 428 2641 812 3112 
Q 1197 3584 1925 3584 
z
" transform="scale(0.015625)"/>
      <path id="DejaVuSansMono-72" d="M 3609 2778 
Q 3425 2922 3234 2987 
Q 3044 3053 2816 3053 
Q 2278 3053 1993 2715 
Q 1709 2378 1709 1741 
L 1709 0 
L 1131 0 
L 1131 3500 
L 1709 3500 
L 1709 2816 
Q 1853 3188 2151 3386 
Q 2450 3584 2859 3584 
Q 3072 3584 3256 3531 
Q 3441 3478 3609 3366 
L 3609 2778 
z
" transform="scale(0.015625)"/>
      <path id="DejaVuSansMono-63" d="M 3316 178 
Q 3084 44 2839 -23 
Q 2594 -91 2338 -91 
Q 1525 -91 1067 396 
Q 609 884 609 1747 
Q 609 2609 1067 3096 
Q 1525 3584 2338 3584 
Q 2591 3584 2831 3518 
Q 3072 3453 3316 3316 
L 3316 2713 
Q 3088 2916 2858 3006 
Q 2628 3097 2338 3097 
Q 1797 3097 1506 2747 
Q 1216 2397 1216 1747 
Q 1216 1100 1508 748 
Q 1800 397 2338 397 
Q 2638 397 2875 489 
Q 3113 581 3316 775 
L 3316 178 
z
" transform="scale(0.015625)"/>
      <path id="DejaVuSansMono-68" d="M 3284 2169 
L 3284 0 
L 2706 0 
L 2706 2169 
Q 2706 2641 2540 2862 
Q 2375 3084 2022 3084 
Q 1619 3084 1401 2798 
Q 1184 2513 1184 1978 
L 1184 0 
L 609 0 
L 609 4863 
L 1184 4863 
L 1184 2975 
Q 1338 3275 1600 3429 
Q 1863 3584 2222 3584 
Q 2756 3584 3020 3232 
Q 3284 2881 3284 2169 
z
" transform="scale(0.015625)"/>
      <path id="DejaVuSansMono-32" d="M 1166 531 
L 3309 531 
L 3309 0 
L 475 0 
L 475 531 
Q 1059 1147 1496 1619 
Q 1934 2091 2100 2284 
Q 2413 2666 2522 2902 
Q 2631 3138 2631 3384 
Q 2631 3775 2401 3997 
Q 2172 4219 1772 4219 
Q 1488 4219 1175 4116 
Q 863 4013 513 3803 
L 513 4441 
Q 834 4594 1145 4672 
Q 1456 4750 1759 4750 
Q 2444 4750 2861 4386 
Q 3278 4022 3278 3431 
Q 3278 3131 3139 2831 
Q 3000 2531 2688 2169 
Q 2513 1966 2180 1606 
Q 1847 1247 1166 531 
z
" transform="scale(0.015625)"/>
      <path id="DejaVuSansMono-67" d="M 2681 1778 
Q 2681 2425 2470 2761 
Q 2259 3097 1856 3097 
Q 1434 3097 1212 2761 
Q 991 2425 991 1778 
Q 991 1131 1214 792 
Q 1438 453 1863 453 
Q 2259 453 2470 793 
Q 2681 1134 2681 1778 
z
M 3256 225 
Q 3256 -563 2884 -969 
Q 2513 -1375 1791 -1375 
Q 1553 -1375 1293 -1331 
Q 1034 -1288 775 -1203 
L 775 -634 
Q 1081 -778 1331 -847 
Q 1581 -916 1791 -916 
Q 2256 -916 2468 -662 
Q 2681 -409 2681 141 
L 2681 166 
L 2681 556 
Q 2544 263 2306 119 
Q 2069 -25 1728 -25 
Q 1116 -25 750 465 
Q 384 956 384 1778 
Q 384 2603 750 3093 
Q 1116 3584 1728 3584 
Q 2066 3584 2300 3450 
Q 2534 3316 2681 3034 
L 2681 3488 
L 3256 3488 
L 3256 225 
z
" transform="scale(0.015625)"/>
      <path id="DejaVuSansMono-70" d="M 1172 441 
L 1172 -1331 
L 594 -1331 
L 594 3500 
L 1172 3500 
L 1172 3053 
Q 1316 3313 1555 3448 
Q 1794 3584 2106 3584 
Q 2741 3584 3102 3093 
Q 3463 2603 3463 1734 
Q 3463 881 3100 395 
Q 2738 -91 2106 -91 
Q 1788 -91 1548 45 
Q 1309 181 1172 441 
z
M 2859 1747 
Q 2859 2416 2648 2756 
Q 2438 3097 2022 3097 
Q 1603 3097 1387 2755 
Q 1172 2413 1172 1747 
Q 1172 1084 1387 740 
Q 1603 397 2022 397 
Q 2438 397 2648 737 
Q 2859 1078 2859 1747 
z
" transform="scale(0.015625)"/>
      <path id="DejaVuSansMono-75" d="M 609 1325 
L 609 3494 
L 1184 3494 
L 1184 1325 
Q 1184 853 1351 631 
Q 1519 409 1869 409 
Q 2275 409 2490 695 
Q 2706 981 2706 1516 
L 2706 3494 
L 3284 3494 
L 3284 0 
L 2706 0 
L 2706 525 
Q 2553 222 2289 65 
Q 2025 -91 1672 -91 
Q 1134 -91 871 261 
Q 609 613 609 1325 
z
" transform="scale(0.015625)"/>
      <path id="DejaVuSansMono-2e" d="M 1528 953 
L 2316 953 
L 2316 0 
L 1528 0 
L 1528 953 
z
" transform="scale(0.015625)"/>
      <path id="DejaVuSansMono-79" d="M 2681 1125 
Q 2538 759 2316 163 
Q 2006 -663 1900 -844 
Q 1756 -1088 1540 -1209 
Q 1325 -1331 1038 -1331 
L 575 -1331 
L 575 -850 
L 916 -850 
Q 1169 -850 1312 -703 
Q 1456 -556 1678 56 
L 325 3500 
L 934 3500 
L 1972 763 
L 2994 3500 
L 3603 3500 
L 2681 1125 
z
" transform="scale(0.015625)"/>
     </defs>
     <use xlink:href="#DejaVuSansMono-74"/>
     <use xlink:href="#DejaVuSansMono-6f" transform="translate(60.205078 0)"/>
     <use xlink:href="#DejaVuSansMono-72" transform="translate(120.410156 0)"/>
     <use xlink:href="#DejaVuSansMono-63" transform="translate(180.615234 0)"/>
     <use xlink:href="#DejaVuSansMono-68" transform="translate(240.820312 0)"/>
     <use xlink:href="#DejaVuSansMono-32" transform="translate(301.025391 0)"/>
     <use xlink:href="#DejaVuSansMono-67" transform="translate(361.230469 0)"/>
     <use xlink:href="#DejaVuSansMono-70" transform="translate(421.435547 0)"/>
     <use xlink:href="#DejaVuSansMono-75" transform="translate(481.640625 0)"/>
     <use xlink:href="#DejaVuSansMono-2e" transform="translate(541.845703 0)"/>
     <use xlink:href="#DejaVuSansMono-70" transform="translate(602.050781 0)"/>
     <use xlink:href="#DejaVuSansMono-79" transform="translate(662.255859 0)"/>
    </g>
   </g>
   <g id="text_8">
    <!-- 548 -->
    <g style="fill: #f0a050" transform="translate(210.730922 188.539963) scale(0.15 -0.15)">
     <defs>
      <path id="DejaVuSans-Bold-35" d="M 678 4666 
L 3669 4666 
L 3669 3781 
L 1638 3781 
L 1638 3059 
Q 1775 3097 1914 3117 
Q 2053 3138 2203 3138 
Q 3056 3138 3531 2711 
Q 4006 2284 4006 1522 
Q 4006 766 3489 337 
Q 2972 -91 2053 -91 
Q 1656 -91 1267 -14 
Q 878 63 494 219 
L 494 1166 
Q 875 947 1217 837 
Q 1559 728 1863 728 
Q 2300 728 2551 942 
Q 2803 1156 2803 1522 
Q 2803 1891 2551 2103 
Q 2300 2316 1863 2316 
Q 1603 2316 1309 2248 
Q 1016 2181 678 2041 
L 678 4666 
z
" transform="scale(0.015625)"/>
      <path id="DejaVuSans-Bold-38" d="M 2228 2088 
Q 1891 2088 1709 1903 
Q 1528 1719 1528 1375 
Q 1528 1031 1709 848 
Q 1891 666 2228 666 
Q 2563 666 2741 848 
Q 2919 1031 2919 1375 
Q 2919 1722 2741 1905 
Q 2563 2088 2228 2088 
z
M 1350 2484 
Q 925 2613 709 2878 
Q 494 3144 494 3541 
Q 494 4131 934 4440 
Q 1375 4750 2228 4750 
Q 3075 4750 3515 4442 
Q 3956 4134 3956 3541 
Q 3956 3144 3739 2878 
Q 3522 2613 3097 2484 
Q 3572 2353 3814 2058 
Q 4056 1763 4056 1313 
Q 4056 619 3595 264 
Q 3134 -91 2228 -91 
Q 1319 -91 855 264 
Q 391 619 391 1313 
Q 391 1763 633 2058 
Q 875 2353 1350 2484 
z
M 1631 3419 
Q 1631 3141 1786 2991 
Q 1941 2841 2228 2841 
Q 2509 2841 2662 2991 
Q 2816 3141 2816 3419 
Q 2816 3697 2662 3845 
Q 2509 3994 2228 3994 
Q 1941 3994 1786 3844 
Q 1631 3694 1631 3419 
z
" transform="scale(0.015625)"/>
     </defs>
     <use xlink:href="#DejaVuSans-Bold-35"/>
     <use xlink:href="#DejaVuSans-Bold-34" transform="translate(69.580078 0)"/>
     <use xlink:href="#DejaVuSans-Bold-38" transform="translate(139.160156 0)"/>
    </g>
   </g>
   <g id="text_9">
    <!-- asm lines -->
    <g style="fill: #6a6a8a" transform="translate(208.568813 228.29502) scale(0.075 -0.075)">
     <use xlink:href="#DejaVuSans-61"/>
     <use xlink:href="#DejaVuSans-73" transform="translate(61.279297 0)"/>
     <use xlink:href="#DejaVuSans-6d" transform="translate(113.378906 0)"/>
     <use xlink:href="#DejaVuSans-20" transform="translate(210.791016 0)"/>
     <use xlink:href="#DejaVuSans-6c" transform="translate(242.578125 0)"/>
     <use xlink:href="#DejaVuSans-69" transform="translate(270.361328 0)"/>
     <use xlink:href="#DejaVuSans-6e" transform="translate(298.144531 0)"/>
     <use xlink:href="#DejaVuSans-65" transform="translate(361.523438 0)"/>
     <use xlink:href="#DejaVuSans-73" transform="translate(423.046875 0)"/>
    </g>
   </g>
   <g id="text_10">
    <!-- Assemble -->
    <g style="fill: #f0f0f5" transform="translate(324.51032 103.373131) scale(0.095 -0.095)">
     <defs>
      <path id="DejaVuSans-Bold-41" d="M 3419 850 
L 1538 850 
L 1241 0 
L 31 0 
L 1759 4666 
L 3194 4666 
L 4922 0 
L 3713 0 
L 3419 850 
z
M 1838 1716 
L 3116 1716 
L 2478 3572 
L 1838 1716 
z
" transform="scale(0.015625)"/>
      <path id="DejaVuSans-Bold-73" d="M 3272 3391 
L 3272 2541 
Q 2913 2691 2578 2766 
Q 2244 2841 1947 2841 
Q 1628 2841 1473 2761 
Q 1319 2681 1319 2516 
Q 1319 2381 1436 2309 
Q 1553 2238 1856 2203 
L 2053 2175 
Q 2913 2066 3209 1816 
Q 3506 1566 3506 1031 
Q 3506 472 3093 190 
Q 2681 -91 1863 -91 
Q 1516 -91 1145 -36 
Q 775 19 384 128 
L 384 978 
Q 719 816 1070 734 
Q 1422 653 1784 653 
Q 2113 653 2278 743 
Q 2444 834 2444 1013 
Q 2444 1163 2330 1236 
Q 2216 1309 1875 1350 
L 1678 1375 
Q 931 1469 631 1722 
Q 331 1975 331 2491 
Q 331 3047 712 3315 
Q 1094 3584 1881 3584 
Q 2191 3584 2531 3537 
Q 2872 3491 3272 3391 
z
" transform="scale(0.015625)"/>
      <path id="DejaVuSans-Bold-62" d="M 2400 722 
Q 2759 722 2948 984 
Q 3138 1247 3138 1747 
Q 3138 2247 2948 2509 
Q 2759 2772 2400 2772 
Q 2041 2772 1848 2508 
Q 1656 2244 1656 1747 
Q 1656 1250 1848 986 
Q 2041 722 2400 722 
z
M 1656 2988 
Q 1888 3294 2169 3439 
Q 2450 3584 2816 3584 
Q 3463 3584 3878 3070 
Q 4294 2556 4294 1747 
Q 4294 938 3878 423 
Q 3463 -91 2816 -91 
Q 2450 -91 2169 54 
Q 1888 200 1656 506 
L 1656 0 
L 538 0 
L 538 4863 
L 1656 4863 
L 1656 2988 
z
" transform="scale(0.015625)"/>
     </defs>
     <use xlink:href="#DejaVuSans-Bold-41"/>
     <use xlink:href="#DejaVuSans-Bold-73" transform="translate(77.392578 0)"/>
     <use xlink:href="#DejaVuSans-Bold-73" transform="translate(136.914062 0)"/>
     <use xlink:href="#DejaVuSans-Bold-65" transform="translate(196.435547 0)"/>
     <use xlink:href="#DejaVuSans-Bold-6d" transform="translate(264.257812 0)"/>
     <use xlink:href="#DejaVuSans-Bold-62" transform="translate(368.457031 0)"/>
     <use xlink:href="#DejaVuSans-Bold-6c" transform="translate(440.039062 0)"/>
     <use xlink:href="#DejaVuSans-Bold-65" transform="translate(474.316406 0)"/>
    </g>
   </g>
   <g id="text_11">
    <!-- gpu_asm.py -->
    <g style="fill: #6a6a8a" transform="translate(327.685828 132.716937) scale(0.075 -0.075)">
     <defs>
      <path id="DejaVuSansMono-5f" d="M 3853 -1259 
L 3853 -1509 
L 0 -1509 
L 0 -1259 
L 3853 -1259 
z
" transform="scale(0.015625)"/>
      <path id="DejaVuSansMono-61" d="M 2194 1759 
L 2003 1759 
Q 1500 1759 1245 1582 
Q 991 1406 991 1056 
Q 991 741 1181 566 
Q 1372 391 1709 391 
Q 2184 391 2456 720 
Q 2728 1050 2731 1631 
L 2731 1759 
L 2194 1759 
z
M 3309 1997 
L 3309 0 
L 2731 0 
L 2731 519 
Q 2547 206 2267 57 
Q 1988 -91 1588 -91 
Q 1053 -91 734 211 
Q 416 513 416 1019 
Q 416 1603 808 1906 
Q 1200 2209 1959 2209 
L 2731 2209 
L 2731 2300 
Q 2728 2719 2518 2908 
Q 2309 3097 1850 3097 
Q 1556 3097 1256 3012 
Q 956 2928 672 2766 
L 672 3341 
Q 991 3463 1283 3523 
Q 1575 3584 1850 3584 
Q 2284 3584 2592 3456 
Q 2900 3328 3091 3072 
Q 3209 2916 3259 2686 
Q 3309 2456 3309 1997 
z
" transform="scale(0.015625)"/>
      <path id="DejaVuSansMono-73" d="M 3041 3378 
L 3041 2816 
Q 2794 2959 2544 3031 
Q 2294 3103 2034 3103 
Q 1644 3103 1451 2976 
Q 1259 2850 1259 2591 
Q 1259 2356 1403 2240 
Q 1547 2125 2119 2016 
L 2350 1972 
Q 2778 1891 2998 1647 
Q 3219 1403 3219 1013 
Q 3219 494 2850 201 
Q 2481 -91 1825 -91 
Q 1566 -91 1281 -36 
Q 997 19 666 128 
L 666 722 
Q 988 556 1281 473 
Q 1575 391 1838 391 
Q 2219 391 2428 545 
Q 2638 700 2638 978 
Q 2638 1378 1872 1531 
L 1847 1538 
L 1631 1581 
Q 1134 1678 906 1908 
Q 678 2138 678 2534 
Q 678 3038 1018 3311 
Q 1359 3584 1991 3584 
Q 2272 3584 2531 3532 
Q 2791 3481 3041 3378 
z
" transform="scale(0.015625)"/>
      <path id="DejaVuSansMono-6d" d="M 2113 3144 
Q 2219 3369 2383 3476 
Q 2547 3584 2778 3584 
Q 3200 3584 3373 3257 
Q 3547 2931 3547 2028 
L 3547 0 
L 3022 0 
L 3022 2003 
Q 3022 2744 2939 2923 
Q 2856 3103 2638 3103 
Q 2388 3103 2295 2911 
Q 2203 2719 2203 2003 
L 2203 0 
L 1678 0 
L 1678 2003 
Q 1678 2753 1589 2928 
Q 1500 3103 1269 3103 
Q 1041 3103 952 2911 
Q 863 2719 863 2003 
L 863 0 
L 341 0 
L 341 3500 
L 863 3500 
L 863 3200 
Q 966 3388 1120 3486 
Q 1275 3584 1472 3584 
Q 1709 3584 1867 3475 
Q 2025 3366 2113 3144 
z
" transform="scale(0.015625)"/>
     </defs>
     <use xlink:href="#DejaVuSansMono-67"/>
     <use xlink:href="#DejaVuSansMono-70" transform="translate(60.205078 0)"/>
     <use xlink:href="#DejaVuSansMono-75" transform="translate(120.410156 0)"/>
     <use xlink:href="#DejaVuSansMono-5f" transform="translate(180.615234 0)"/>
     <use xlink:href="#DejaVuSansMono-61" transform="translate(240.820312 0)"/>
     <use xlink:href="#DejaVuSansMono-73" transform="translate(301.025391 0)"/>
     <use xlink:href="#DejaVuSansMono-6d" transform="translate(361.230469 0)"/>
     <use xlink:href="#DejaVuSansMono-2e" transform="translate(421.435547 0)"/>
     <use xlink:href="#DejaVuSansMono-70" transform="translate(481.640625 0)"/>
     <use xlink:href="#DejaVuSansMono-79" transform="translate(541.845703 0)"/>
    </g>
   </g>
   <g id="text_12">
    <!-- 499 -->
    <g style="fill: #f0a050" transform="translate(334.606922 188.539963) scale(0.15 -0.15)">
     <defs>
      <path id="DejaVuSans-Bold-39" d="M 641 103 
L 641 966 
Q 928 831 1190 764 
Q 1453 697 1709 697 
Q 2247 697 2547 995 
Q 2847 1294 2900 1881 
Q 2688 1725 2447 1647 
Q 2206 1569 1925 1569 
Q 1209 1569 770 1986 
Q 331 2403 331 3084 
Q 331 3838 820 4291 
Q 1309 4744 2131 4744 
Q 3044 4744 3544 4128 
Q 4044 3513 4044 2388 
Q 4044 1231 3459 570 
Q 2875 -91 1856 -91 
Q 1528 -91 1228 -42 
Q 928 6 641 103 
z
M 2125 2350 
Q 2441 2350 2600 2554 
Q 2759 2759 2759 3169 
Q 2759 3575 2600 3781 
Q 2441 3988 2125 3988 
Q 1809 3988 1650 3781 
Q 1491 3575 1491 3169 
Q 1491 2759 1650 2554 
Q 1809 2350 2125 2350 
z
" transform="scale(0.015625)"/>
     </defs>
     <use xlink:href="#DejaVuSans-Bold-34"/>
     <use xlink:href="#DejaVuSans-Bold-39" transform="translate(69.580078 0)"/>
     <use xlink:href="#DejaVuSans-Bold-39" transform="translate(139.160156 0)"/>
    </g>
   </g>
   <g id="text_13">
    <!-- instructions -->
    <g style="fill: #6a6a8a" transform="translate(328.303406 228.29502) scale(0.075 -0.075)">
     <use xlink:href="#DejaVuSans-69"/>
     <use xlink:href="#DejaVuSans-6e" transform="translate(27.783203 0)"/>
     <use xlink:href="#DejaVuSans-73" transform="translate(91.162109 0)"/>
     <use xlink:href="#DejaVuSans-74" transform="translate(143.261719 0)"/>
     <use xlink:href="#DejaVuSans-72" transform="translate(182.470703 0)"/>
     <use xlink:href="#DejaVuSans-75" transform="translate(223.583984 0)"/>
     <use xlink:href="#DejaVuSans-63" transform="translate(286.962891 0)"/>
     <use xlink:href="#DejaVuSans-74" transform="translate(341.943359 0)"/>
     <use xlink:href="#DejaVuSans-69" transform="translate(381.152344 0)"/>
     <use xlink:href="#DejaVuSans-6f" transform="translate(408.935547 0)"/>
     <use xlink:href="#DejaVuSans-6e" transform="translate(470.117188 0)"/>
     <use xlink:href="#DejaVuSans-73" transform="translate(533.496094 0)"/>
    </g>
   </g>
   <g id="text_14">
    <!-- Simulate -->
    <g style="fill: #f0f0f5" transform="translate(450.431789 103.373131) scale(0.095 -0.095)">
     <defs>
      <path id="DejaVuSans-Bold-61" d="M 2106 1575 
Q 1756 1575 1579 1456 
Q 1403 1338 1403 1106 
Q 1403 894 1545 773 
Q 1688 653 1941 653 
Q 2256 653 2472 879 
Q 2688 1106 2688 1447 
L 2688 1575 
L 2106 1575 
z
M 3816 1997 
L 3816 0 
L 2688 0 
L 2688 519 
Q 2463 200 2181 54 
Q 1900 -91 1497 -91 
Q 953 -91 614 226 
Q 275 544 275 1050 
Q 275 1666 698 1953 
Q 1122 2241 2028 2241 
L 2688 2241 
L 2688 2328 
Q 2688 2594 2478 2717 
Q 2269 2841 1825 2841 
Q 1466 2841 1156 2769 
Q 847 2697 581 2553 
L 581 3406 
Q 941 3494 1303 3539 
Q 1666 3584 2028 3584 
Q 2975 3584 3395 3211 
Q 3816 2838 3816 1997 
z
" transform="scale(0.015625)"/>
      <path id="DejaVuSans-Bold-74" d="M 1759 4494 
L 1759 3500 
L 2913 3500 
L 2913 2700 
L 1759 2700 
L 1759 1216 
Q 1759 972 1856 886 
Q 1953 800 2241 800 
L 2816 800 
L 2816 0 
L 1856 0 
Q 1194 0 917 276 
Q 641 553 641 1216 
L 641 2700 
L 84 2700 
L 84 3500 
L 641 3500 
L 641 4494 
L 1759 4494 
z
" transform="scale(0.015625)"/>
     </defs>
     <use xlink:href="#DejaVuSans-Bold-53"/>
     <use xlink:href="#DejaVuSans-Bold-69" transform="translate(72.021484 0)"/>
     <use xlink:href="#DejaVuSans-Bold-6d" transform="translate(106.298828 0)"/>
     <use xlink:href="#DejaVuSans-Bold-75" transform="translate(210.498047 0)"/>
     <use xlink:href="#DejaVuSans-Bold-6c" transform="translate(281.689453 0)"/>
     <use xlink:href="#DejaVuSans-Bold-61" transform="translate(315.966797 0)"/>
     <use xlink:href="#DejaVuSans-Bold-74" transform="translate(383.447266 0)"/>
     <use xlink:href="#DejaVuSans-Bold-65" transform="translate(431.25 0)"/>
    </g>
   </g>
   <g id="text_15">
    <!-- Xcelium -->
    <g style="fill: #6a6a8a" transform="translate(458.33468 132.92553) scale(0.075 -0.075)">
     <defs>
      <path id="DejaVuSansMono-58" d="M 269 4666 
L 947 4666 
L 1972 2906 
L 3016 4666 
L 3694 4666 
L 2297 2472 
L 3794 0 
L 3116 0 
L 1972 2009 
L 738 0 
L 56 0 
L 1619 2472 
L 269 4666 
z
" transform="scale(0.015625)"/>
      <path id="DejaVuSansMono-65" d="M 3475 1894 
L 3475 1613 
L 984 1613 
L 984 1594 
Q 984 1022 1282 709 
Q 1581 397 2125 397 
Q 2400 397 2700 484 
Q 3000 572 3341 750 
L 3341 178 
Q 3013 44 2708 -23 
Q 2403 -91 2119 -91 
Q 1303 -91 843 398 
Q 384 888 384 1747 
Q 384 2584 834 3084 
Q 1284 3584 2034 3584 
Q 2703 3584 3089 3131 
Q 3475 2678 3475 1894 
z
M 2900 2063 
Q 2888 2569 2661 2833 
Q 2434 3097 2009 3097 
Q 1594 3097 1325 2822 
Q 1056 2547 1006 2059 
L 2900 2063 
z
" transform="scale(0.015625)"/>
      <path id="DejaVuSansMono-6c" d="M 1997 1269 
Q 1997 881 2139 684 
Q 2281 488 2559 488 
L 3231 488 
L 3231 0 
L 2503 0 
Q 1988 0 1705 331 
Q 1422 663 1422 1269 
L 1422 4447 
L 500 4447 
L 500 4897 
L 1997 4897 
L 1997 1269 
z
" transform="scale(0.015625)"/>
      <path id="DejaVuSansMono-69" d="M 800 3500 
L 2272 3500 
L 2272 447 
L 3413 447 
L 3413 0 
L 556 0 
L 556 447 
L 1697 447 
L 1697 3053 
L 800 3053 
L 800 3500 
z
M 1697 4863 
L 2272 4863 
L 2272 4134 
L 1697 4134 
L 1697 4863 
z
" transform="scale(0.015625)"/>
     </defs>
     <use xlink:href="#DejaVuSansMono-58"/>
     <use xlink:href="#DejaVuSansMono-63" transform="translate(60.205078 0)"/>
     <use xlink:href="#DejaVuSansMono-65" transform="translate(120.410156 0)"/>
     <use xlink:href="#DejaVuSansMono-6c" transform="translate(180.615234 0)"/>
     <use xlink:href="#DejaVuSansMono-69" transform="translate(240.820312 0)"/>
     <use xlink:href="#DejaVuSansMono-75" transform="translate(301.025391 0)"/>
     <use xlink:href="#DejaVuSansMono-6d" transform="translate(361.230469 0)"/>
    </g>
   </g>
   <g id="text_16">
    <!-- 1,935 -->
    <g style="fill: #f0a050" transform="translate(450.415734 188.539963) scale(0.15 -0.15)">
     <defs>
      <path id="DejaVuSans-Bold-2c" d="M 653 1209 
L 1778 1209 
L 1778 256 
L 1006 -909 
L 341 -909 
L 653 256 
L 653 1209 
z
" transform="scale(0.015625)"/>
      <path id="DejaVuSans-Bold-33" d="M 2981 2516 
Q 3453 2394 3698 2092 
Q 3944 1791 3944 1325 
Q 3944 631 3412 270 
Q 2881 -91 1863 -91 
Q 1503 -91 1142 -33 
Q 781 25 428 141 
L 428 1069 
Q 766 900 1098 814 
Q 1431 728 1753 728 
Q 2231 728 2486 893 
Q 2741 1059 2741 1369 
Q 2741 1688 2480 1852 
Q 2219 2016 1709 2016 
L 1228 2016 
L 1228 2791 
L 1734 2791 
Q 2188 2791 2409 2933 
Q 2631 3075 2631 3366 
Q 2631 3634 2415 3781 
Q 2200 3928 1806 3928 
Q 1516 3928 1219 3862 
Q 922 3797 628 3669 
L 628 4550 
Q 984 4650 1334 4700 
Q 1684 4750 2022 4750 
Q 2931 4750 3382 4451 
Q 3834 4153 3834 3553 
Q 3834 3144 3618 2883 
Q 3403 2622 2981 2516 
z
" transform="scale(0.015625)"/>
     </defs>
     <use xlink:href="#DejaVuSans-Bold-31"/>
     <use xlink:href="#DejaVuSans-Bold-2c" transform="translate(69.580078 0)"/>
     <use xlink:href="#DejaVuSans-Bold-39" transform="translate(107.568359 0)"/>
     <use xlink:href="#DejaVuSans-Bold-33" transform="translate(177.148438 0)"/>
     <use xlink:href="#DejaVuSans-Bold-35" transform="translate(246.728516 0)"/>
    </g>
   </g>
   <g id="text_17">
    <!-- cycles  ·  PASS -->
    <g style="fill: #6a6a8a" transform="translate(447.184289 228.29502) scale(0.075 -0.075)">
     <defs>
      <path id="DejaVuSans-79" d="M 2059 -325 
Q 1816 -950 1584 -1140 
Q 1353 -1331 966 -1331 
L 506 -1331 
L 506 -850 
L 844 -850 
Q 1081 -850 1212 -737 
Q 1344 -625 1503 -206 
L 1606 56 
L 191 3500 
L 800 3500 
L 1894 763 
L 2988 3500 
L 3597 3500 
L 2059 -325 
z
" transform="scale(0.015625)"/>
      <path id="DejaVuSans-41" d="M 2188 4044 
L 1331 1722 
L 3047 1722 
L 2188 4044 
z
M 1831 4666 
L 2547 4666 
L 4325 0 
L 3669 0 
L 3244 1197 
L 1141 1197 
L 716 0 
L 50 0 
L 1831 4666 
z
" transform="scale(0.015625)"/>
      <path id="DejaVuSans-53" d="M 3425 4513 
L 3425 3897 
Q 3066 4069 2747 4153 
Q 2428 4238 2131 4238 
Q 1616 4238 1336 4038 
Q 1056 3838 1056 3469 
Q 1056 3159 1242 3001 
Q 1428 2844 1947 2747 
L 2328 2669 
Q 3034 2534 3370 2195 
Q 3706 1856 3706 1288 
Q 3706 609 3251 259 
Q 2797 -91 1919 -91 
Q 1588 -91 1214 -16 
Q 841 59 441 206 
L 441 856 
Q 825 641 1194 531 
Q 1563 422 1919 422 
Q 2459 422 2753 634 
Q 3047 847 3047 1241 
Q 3047 1584 2836 1778 
Q 2625 1972 2144 2069 
L 1759 2144 
Q 1053 2284 737 2584 
Q 422 2884 422 3419 
Q 422 4038 858 4394 
Q 1294 4750 2059 4750 
Q 2388 4750 2728 4690 
Q 3069 4631 3425 4513 
z
" transform="scale(0.015625)"/>
     </defs>
     <use xlink:href="#DejaVuSans-63"/>
     <use xlink:href="#DejaVuSans-79" transform="translate(54.980469 0)"/>
     <use xlink:href="#DejaVuSans-63" transform="translate(114.160156 0)"/>
     <use xlink:href="#DejaVuSans-6c" transform="translate(169.140625 0)"/>
     <use xlink:href="#DejaVuSans-65" transform="translate(196.923828 0)"/>
     <use xlink:href="#DejaVuSans-73" transform="translate(258.447266 0)"/>
     <use xlink:href="#DejaVuSans-20" transform="translate(310.546875 0)"/>
     <use xlink:href="#DejaVuSans-20" transform="translate(342.333984 0)"/>
     <use xlink:href="#DejaVuSans-b7" transform="translate(374.121094 0)"/>
     <use xlink:href="#DejaVuSans-20" transform="translate(405.908203 0)"/>
     <use xlink:href="#DejaVuSans-20" transform="translate(437.695312 0)"/>
     <use xlink:href="#DejaVuSans-50" transform="translate(469.482422 0)"/>
     <use xlink:href="#DejaVuSans-41" transform="translate(523.410156 0)"/>
     <use xlink:href="#DejaVuSans-53" transform="translate(591.818359 0)"/>
     <use xlink:href="#DejaVuSans-53" transform="translate(655.294922 0)"/>
    </g>
   </g>
   <g id="text_18">
    <!-- Synthesize -->
    <g style="fill: #f0f0f5" transform="translate(568.800016 103.336021) scale(0.095 -0.095)">
     <defs>
      <path id="DejaVuSans-Bold-79" d="M 78 3500 
L 1197 3500 
L 2138 1125 
L 2938 3500 
L 4056 3500 
L 2584 -331 
Q 2363 -916 2067 -1148 
Q 1772 -1381 1288 -1381 
L 641 -1381 
L 641 -647 
L 991 -647 
Q 1275 -647 1404 -556 
Q 1534 -466 1606 -231 
L 1638 -134 
L 78 3500 
z
" transform="scale(0.015625)"/>
      <path id="DejaVuSans-Bold-7a" d="M 366 3500 
L 3419 3500 
L 3419 2719 
L 1575 800 
L 3419 800 
L 3419 0 
L 288 0 
L 288 781 
L 2131 2700 
L 366 2700 
L 366 3500 
z
" transform="scale(0.015625)"/>
     </defs>
     <use xlink:href="#DejaVuSans-Bold-53"/>
     <use xlink:href="#DejaVuSans-Bold-79" transform="translate(72.021484 0)"/>
     <use xlink:href="#DejaVuSans-Bold-6e" transform="translate(137.207031 0)"/>
     <use xlink:href="#DejaVuSans-Bold-74" transform="translate(208.398438 0)"/>
     <use xlink:href="#DejaVuSans-Bold-68" transform="translate(256.201172 0)"/>
     <use xlink:href="#DejaVuSans-Bold-65" transform="translate(327.392578 0)"/>
     <use xlink:href="#DejaVuSans-Bold-73" transform="translate(395.214844 0)"/>
     <use xlink:href="#DejaVuSans-Bold-69" transform="translate(454.736328 0)"/>
     <use xlink:href="#DejaVuSans-Bold-7a" transform="translate(489.013672 0)"/>
     <use xlink:href="#DejaVuSans-Bold-65" transform="translate(547.216797 0)"/>
    </g>
   </g>
   <g id="text_19">
    <!-- Genus -->
    <g style="fill: #6a6a8a" transform="translate(586.725914 132.92553) scale(0.075 -0.075)">
     <defs>
      <path id="DejaVuSansMono-47" d="M 3450 384 
Q 3197 150 2880 29 
Q 2563 -91 2194 -91 
Q 1306 -91 812 545 
Q 319 1181 319 2328 
Q 319 3472 819 4111 
Q 1319 4750 2209 4750 
Q 2503 4750 2772 4667 
Q 3041 4584 3291 4416 
L 3291 3769 
Q 3038 4009 2772 4123 
Q 2506 4238 2209 4238 
Q 1594 4238 1286 3761 
Q 978 3284 978 2328 
Q 978 1356 1276 889 
Q 1575 422 2194 422 
Q 2403 422 2561 470 
Q 2719 519 2847 622 
L 2847 1875 
L 2169 1875 
L 2169 2394 
L 3450 2394 
L 3450 384 
z
" transform="scale(0.015625)"/>
      <path id="DejaVuSansMono-6e" d="M 3284 2169 
L 3284 0 
L 2706 0 
L 2706 2169 
Q 2706 2641 2540 2862 
Q 2375 3084 2022 3084 
Q 1619 3084 1401 2798 
Q 1184 2513 1184 1978 
L 1184 0 
L 609 0 
L 609 3500 
L 1184 3500 
L 1184 2975 
Q 1338 3275 1600 3429 
Q 1863 3584 2222 3584 
Q 2756 3584 3020 3232 
Q 3284 2881 3284 2169 
z
" transform="scale(0.015625)"/>
     </defs>
     <use xlink:href="#DejaVuSansMono-47"/>
     <use xlink:href="#DejaVuSansMono-65" transform="translate(60.205078 0)"/>
     <use xlink:href="#DejaVuSansMono-6e" transform="translate(120.410156 0)"/>
     <use xlink:href="#DejaVuSansMono-75" transform="translate(180.615234 0)"/>
     <use xlink:href="#DejaVuSansMono-73" transform="translate(240.820312 0)"/>
    </g>
   </g>
   <g id="text_20">
    <!-- 27,124 -->
    <g style="fill: #f0a050" transform="translate(569.073375 188.539963) scale(0.15 -0.15)">
     <defs>
      <path id="DejaVuSans-Bold-32" d="M 1844 884 
L 3897 884 
L 3897 0 
L 506 0 
L 506 884 
L 2209 2388 
Q 2438 2594 2547 2791 
Q 2656 2988 2656 3200 
Q 2656 3528 2436 3728 
Q 2216 3928 1850 3928 
Q 1569 3928 1234 3808 
Q 900 3688 519 3450 
L 519 4475 
Q 925 4609 1322 4679 
Q 1719 4750 2100 4750 
Q 2938 4750 3402 4381 
Q 3866 4013 3866 3353 
Q 3866 2972 3669 2642 
Q 3472 2313 2841 1759 
L 1844 884 
z
" transform="scale(0.015625)"/>
      <path id="DejaVuSans-Bold-37" d="M 428 4666 
L 3944 4666 
L 3944 3988 
L 2125 0 
L 953 0 
L 2675 3781 
L 428 3781 
L 428 4666 
z
" transform="scale(0.015625)"/>
     </defs>
     <use xlink:href="#DejaVuSans-Bold-32"/>
     <use xlink:href="#DejaVuSans-Bold-37" transform="translate(69.580078 0)"/>
     <use xlink:href="#DejaVuSans-Bold-2c" transform="translate(139.160156 0)"/>
     <use xlink:href="#DejaVuSans-Bold-31" transform="translate(177.148438 0)"/>
     <use xlink:href="#DejaVuSans-Bold-32" transform="translate(246.728516 0)"/>
     <use xlink:href="#DejaVuSans-Bold-34" transform="translate(316.308594 0)"/>
    </g>
   </g>
   <g id="text_21">
    <!-- um²  ·  0.71 mW -->
    <g style="fill: #6a6a8a" transform="translate(567.62025 228.29502) scale(0.075 -0.075)">
     <defs>
      <path id="DejaVuSans-b2" d="M 838 2444 
L 2163 2444 
L 2163 2088 
L 294 2088 
L 294 2431 
Q 400 2528 597 2703 
Q 1672 3656 1672 3950 
Q 1672 4156 1509 4282 
Q 1347 4409 1081 4409 
Q 919 4409 728 4354 
Q 538 4300 313 4191 
L 313 4575 
Q 553 4663 761 4706 
Q 969 4750 1147 4750 
Q 1600 4750 1872 4544 
Q 2144 4338 2144 4000 
Q 2144 3566 1109 2678 
Q 934 2528 838 2444 
z
" transform="scale(0.015625)"/>
      <path id="DejaVuSans-2e" d="M 684 794 
L 1344 794 
L 1344 0 
L 684 0 
L 684 794 
z
" transform="scale(0.015625)"/>
      <path id="DejaVuSans-36" d="M 2113 2584 
Q 1688 2584 1439 2293 
Q 1191 2003 1191 1497 
Q 1191 994 1439 701 
Q 1688 409 2113 409 
Q 2538 409 2786 701 
Q 3034 994 3034 1497 
Q 3034 2003 2786 2293 
Q 2538 2584 2113 2584 
z
M 3366 4563 
L 3366 3988 
Q 3128 4100 2886 4159 
Q 2644 4219 2406 4219 
Q 1781 4219 1451 3797 
Q 1122 3375 1075 2522 
Q 1259 2794 1537 2939 
Q 1816 3084 2150 3084 
Q 2853 3084 3261 2657 
Q 3669 2231 3669 1497 
Q 3669 778 3244 343 
Q 2819 -91 2113 -91 
Q 1303 -91 875 529 
Q 447 1150 447 2328 
Q 447 3434 972 4092 
Q 1497 4750 2381 4750 
Q 2619 4750 2861 4703 
Q 3103 4656 3366 4563 
z
" transform="scale(0.015625)"/>
      <path id="DejaVuSans-57" d="M 213 4666 
L 850 4666 
L 1831 722 
L 2809 4666 
L 3519 4666 
L 4500 722 
L 5478 4666 
L 6119 4666 
L 4947 0 
L 4153 0 
L 3169 4050 
L 2175 0 
L 1381 0 
L 213 4666 
z
" transform="scale(0.015625)"/>
     </defs>
     <use xlink:href="#DejaVuSans-75"/>
     <use xlink:href="#DejaVuSans-6d" transform="translate(63.378906 0)"/>
     <use xlink:href="#DejaVuSans-b2" transform="translate(160.791016 0)"/>
     <use xlink:href="#DejaVuSans-20" transform="translate(200.878906 0)"/>
     <use xlink:href="#DejaVuSans-20" transform="translate(232.666016 0)"/>
     <use xlink:href="#DejaVuSans-b7" transform="translate(264.453125 0)"/>
     <use xlink:href="#DejaVuSans-20" transform="translate(296.240234 0)"/>
     <use xlink:href="#DejaVuSans-20" transform="translate(328.027344 0)"/>
     <use xlink:href="#DejaVuSans-30" transform="translate(359.814453 0)"/>
     <use xlink:href="#DejaVuSans-2e" transform="translate(423.4375 0)"/>
     <use xlink:href="#DejaVuSans-37" transform="translate(455.224609 0)"/>
     <use xlink:href="#DejaVuSans-31" transform="translate(518.847656 0)"/>
     <use xlink:href="#DejaVuSans-20" transform="translate(582.470703 0)"/>
     <use xlink:href="#DejaVuSans-6d" transform="translate(614.257812 0)"/>
     <use xlink:href="#DejaVuSans-57" transform="translate(711.669922 0)"/>
    </g>
   </g>
   <g id="text_22">
    <!-- Place+Route -->
    <g style="fill: #f0f0f5" transform="translate(687.761992 103.373131) scale(0.095 -0.095)">
     <defs>
      <path id="DejaVuSans-Bold-2b" d="M 3053 4013 
L 3053 2375 
L 4684 2375 
L 4684 1638 
L 3053 1638 
L 3053 0 
L 2309 0 
L 2309 1638 
L 678 1638 
L 678 2375 
L 2309 2375 
L 2309 4013 
L 3053 4013 
z
" transform="scale(0.015625)"/>
      <path id="DejaVuSans-Bold-52" d="M 2297 2597 
Q 2675 2597 2839 2737 
Q 3003 2878 3003 3200 
Q 3003 3519 2839 3656 
Q 2675 3794 2297 3794 
L 1791 3794 
L 1791 2597 
L 2297 2597 
z
M 1791 1766 
L 1791 0 
L 588 0 
L 588 4666 
L 2425 4666 
Q 3347 4666 3776 4356 
Q 4206 4047 4206 3378 
Q 4206 2916 3982 2619 
Q 3759 2322 3309 2181 
Q 3556 2125 3751 1926 
Q 3947 1728 4147 1325 
L 4800 0 
L 3519 0 
L 2950 1159 
Q 2778 1509 2601 1637 
Q 2425 1766 2131 1766 
L 1791 1766 
z
" transform="scale(0.015625)"/>
     </defs>
     <use xlink:href="#DejaVuSans-Bold-50"/>
     <use xlink:href="#DejaVuSans-Bold-6c" transform="translate(73.291016 0)"/>
     <use xlink:href="#DejaVuSans-Bold-61" transform="translate(107.568359 0)"/>
     <use xlink:href="#DejaVuSans-Bold-63" transform="translate(175.048828 0)"/>
     <use xlink:href="#DejaVuSans-Bold-65" transform="translate(234.326172 0)"/>
     <use xlink:href="#DejaVuSans-Bold-2b" transform="translate(302.148438 0)"/>
     <use xlink:href="#DejaVuSans-Bold-52" transform="translate(385.9375 0)"/>
     <use xlink:href="#DejaVuSans-Bold-6f" transform="translate(462.939453 0)"/>
     <use xlink:href="#DejaVuSans-Bold-75" transform="translate(531.640625 0)"/>
     <use xlink:href="#DejaVuSans-Bold-74" transform="translate(602.832031 0)"/>
     <use xlink:href="#DejaVuSans-Bold-65" transform="translate(650.634766 0)"/>
    </g>
   </g>
   <g id="text_23">
    <!-- Innovus -->
    <g style="fill: #6a6a8a" transform="translate(706.08668 132.92553) scale(0.075 -0.075)">
     <defs>
      <path id="DejaVuSansMono-49" d="M 628 4666 
L 3219 4666 
L 3219 4134 
L 2241 4134 
L 2241 531 
L 3219 531 
L 3219 0 
L 628 0 
L 628 531 
L 1606 531 
L 1606 4134 
L 628 4134 
L 628 4666 
z
" transform="scale(0.015625)"/>
      <path id="DejaVuSansMono-76" d="M 313 3500 
L 909 3500 
L 1925 563 
L 2944 3500 
L 3541 3500 
L 2297 0 
L 1556 0 
L 313 3500 
z
" transform="scale(0.015625)"/>
     </defs>
     <use xlink:href="#DejaVuSansMono-49"/>
     <use xlink:href="#DejaVuSansMono-6e" transform="translate(60.205078 0)"/>
     <use xlink:href="#DejaVuSansMono-6e" transform="translate(120.410156 0)"/>
     <use xlink:href="#DejaVuSansMono-6f" transform="translate(180.615234 0)"/>
     <use xlink:href="#DejaVuSansMono-76" transform="translate(240.820312 0)"/>
     <use xlink:href="#DejaVuSansMono-75" transform="translate(301.025391 0)"/>
     <use xlink:href="#DejaVuSansMono-73" transform="translate(361.230469 0)"/>
    </g>
   </g>
   <g id="text_24">
    <!-- 38,779 -->
    <g style="fill: #f0a050" transform="translate(692.949375 188.539963) scale(0.15 -0.15)">
     <use xlink:href="#DejaVuSans-Bold-33"/>
     <use xlink:href="#DejaVuSans-Bold-38" transform="translate(69.580078 0)"/>
     <use xlink:href="#DejaVuSans-Bold-2c" transform="translate(139.160156 0)"/>
     <use xlink:href="#DejaVuSans-Bold-37" transform="translate(177.148438 0)"/>
     <use xlink:href="#DejaVuSans-Bold-37" transform="translate(246.728516 0)"/>
     <use xlink:href="#DejaVuSans-Bold-39" transform="translate(316.308594 0)"/>
    </g>
   </g>
   <g id="text_25">
    <!-- um² allocated -->
    <g style="fill: #6a6a8a" transform="translate(695.971055 228.29502) scale(0.075 -0.075)">
     <use xlink:href="#DejaVuSans-75"/>
     <use xlink:href="#DejaVuSans-6d" transform="translate(63.378906 0)"/>
     <use xlink:href="#DejaVuSans-b2" transform="translate(160.791016 0)"/>
     <use xlink:href="#DejaVuSans-20" transform="translate(200.878906 0)"/>
     <use xlink:href="#DejaVuSans-61" transform="translate(232.666016 0)"/>
     <use xlink:href="#DejaVuSans-6c" transform="translate(293.945312 0)"/>
     <use xlink:href="#DejaVuSans-6c" transform="translate(321.728516 0)"/>
     <use xlink:href="#DejaVuSans-6f" transform="translate(349.511719 0)"/>
     <use xlink:href="#DejaVuSans-63" transform="translate(410.693359 0)"/>
     <use xlink:href="#DejaVuSans-61" transform="translate(465.673828 0)"/>
     <use xlink:href="#DejaVuSans-74" transform="translate(526.953125 0)"/>
     <use xlink:href="#DejaVuSans-65" transform="translate(566.162109 0)"/>
     <use xlink:href="#DejaVuSans-64" transform="translate(627.685547 0)"/>
    </g>
   </g>
   <g id="text_26">
    <!-- Timing -->
    <g style="fill: #f0f0f5" transform="translate(827.537875 103.336021) scale(0.095 -0.095)">
     <defs>
      <path id="DejaVuSans-Bold-67" d="M 2919 594 
Q 2688 288 2409 144 
Q 2131 0 1766 0 
Q 1125 0 706 504 
Q 288 1009 288 1791 
Q 288 2575 706 3076 
Q 1125 3578 1766 3578 
Q 2131 3578 2409 3434 
Q 2688 3291 2919 2981 
L 2919 3500 
L 4044 3500 
L 4044 353 
Q 4044 -491 3511 -936 
Q 2978 -1381 1966 -1381 
Q 1638 -1381 1331 -1331 
Q 1025 -1281 716 -1178 
L 716 -306 
Q 1009 -475 1290 -558 
Q 1572 -641 1856 -641 
Q 2406 -641 2662 -400 
Q 2919 -159 2919 353 
L 2919 594 
z
M 2181 2772 
Q 1834 2772 1640 2515 
Q 1447 2259 1447 1791 
Q 1447 1309 1634 1061 
Q 1822 813 2181 813 
Q 2531 813 2725 1069 
Q 2919 1325 2919 1791 
Q 2919 2259 2725 2515 
Q 2531 2772 2181 2772 
z
" transform="scale(0.015625)"/>
     </defs>
     <use xlink:href="#DejaVuSans-Bold-54"/>
     <use xlink:href="#DejaVuSans-Bold-69" transform="translate(68.212891 0)"/>
     <use xlink:href="#DejaVuSans-Bold-6d" transform="translate(102.490234 0)"/>
     <use xlink:href="#DejaVuSans-Bold-69" transform="translate(206.689453 0)"/>
     <use xlink:href="#DejaVuSans-Bold-6e" transform="translate(240.966797 0)"/>
     <use xlink:href="#DejaVuSans-Bold-67" transform="translate(312.158203 0)"/>
    </g>
   </g>
   <g id="text_27">
    <!-- PrimeTime -->
    <g style="fill: #6a6a8a" transform="translate(825.447445 132.92553) scale(0.075 -0.075)">
     <defs>
      <path id="DejaVuSansMono-50" d="M 1247 4147 
L 1247 2394 
L 1978 2394 
Q 2416 2394 2661 2625 
Q 2906 2856 2906 3272 
Q 2906 3688 2662 3917 
Q 2419 4147 1978 4147 
L 1247 4147 
z
M 616 4666 
L 1978 4666 
Q 2759 4666 3162 4311 
Q 3566 3956 3566 3272 
Q 3566 2581 3164 2228 
Q 2763 1875 1978 1875 
L 1247 1875 
L 1247 0 
L 616 0 
L 616 4666 
z
" transform="scale(0.015625)"/>
      <path id="DejaVuSansMono-54" d="M 147 4666 
L 3706 4666 
L 3706 4134 
L 2247 4134 
L 2247 0 
L 1613 0 
L 1613 4134 
L 147 4134 
L 147 4666 
z
" transform="scale(0.015625)"/>
     </defs>
     <use xlink:href="#DejaVuSansMono-50"/>
     <use xlink:href="#DejaVuSansMono-72" transform="translate(60.205078 0)"/>
     <use xlink:href="#DejaVuSansMono-69" transform="translate(120.410156 0)"/>
     <use xlink:href="#DejaVuSansMono-6d" transform="translate(180.615234 0)"/>
     <use xlink:href="#DejaVuSansMono-65" transform="translate(240.820312 0)"/>
     <use xlink:href="#DejaVuSansMono-54" transform="translate(301.025391 0)"/>
     <use xlink:href="#DejaVuSansMono-69" transform="translate(361.230469 0)"/>
     <use xlink:href="#DejaVuSansMono-6d" transform="translate(421.435547 0)"/>
     <use xlink:href="#DejaVuSansMono-65" transform="translate(481.640625 0)"/>
    </g>
   </g>
   <g id="text_28">
    <!-- -1.61 ns -->
    <g style="fill: #f0a050" transform="translate(808.563656 188.539963) scale(0.15 -0.15)">
     <defs>
      <path id="DejaVuSans-Bold-2e" d="M 653 1209
L 1778 1209
L 1778 0
L 653 0
L 653 1209
z
" transform="scale(0.015625)"/>
      <path id="DejaVuSans-Bold-2d" d="M 500 2094
L 4484 2094
L 4484 1531
L 500 1531
L 500 2094
z
" transform="scale(0.015625)"/>
     </defs>
     <use xlink:href="#DejaVuSans-Bold-2d"/>
     <use xlink:href="#DejaVuSans-Bold-31" transform="translate(83.789062 0)"/>
     <use xlink:href="#DejaVuSans-Bold-2e" transform="translate(153.369141 0)"/>
     <use xlink:href="#DejaVuSans-Bold-36" transform="translate(191.357422 0)"/>
     <use xlink:href="#DejaVuSans-Bold-31" transform="translate(260.9375 0)"/>
     <use xlink:href="#DejaVuSans-Bold-20" transform="translate(330.517578 0)"/>
     <use xlink:href="#DejaVuSans-Bold-6e" transform="translate(365.332031 0)"/>
     <use xlink:href="#DejaVuSans-Bold-73" transform="translate(436.523438 0)"/>
    </g>
   </g>
   <g id="text_29">
    <!-- setup slack -->
    <g style="fill: #6a6a8a" transform="translate(824.559164 228.29502) scale(0.075 -0.075)">
     <use xlink:href="#DejaVuSans-73"/>
     <use xlink:href="#DejaVuSans-65" transform="translate(52.099609 0)"/>
     <use xlink:href="#DejaVuSans-74" transform="translate(113.623047 0)"/>
     <use xlink:href="#DejaVuSans-75" transform="translate(152.832031 0)"/>
     <use xlink:href="#DejaVuSans-70" transform="translate(216.210938 0)"/>
     <use xlink:href="#DejaVuSans-20" transform="translate(279.6875 0)"/>
     <use xlink:href="#DejaVuSans-73" transform="translate(311.474609 0)"/>
     <use xlink:href="#DejaVuSans-6c" transform="translate(363.574219 0)"/>
     <use xlink:href="#DejaVuSans-61" transform="translate(391.357422 0)"/>
     <use xlink:href="#DejaVuSans-63" transform="translate(452.636719 0)"/>
     <use xlink:href="#DejaVuSans-6b" transform="translate(507.617188 0)"/>
    </g>
   </g>
  </g>
 </g>
 <defs>
  <clipPath id="p0c5b0e2584">
   <rect x="21.6" y="48.65443" width="892.8" height="249.48"/>
  </clipPath>
 </defs>
</svg>
